<svg height="14" viewBox="0 0 14 14" width="14" xmlns="http://www.w3.org/2000/svg"><path d="m8.048 12.736-.688.704c-.14933408.1386674-.32799896.208-.536.208s-.38666592-.0693326-.536-.208l-6.064-6.08c-.14933408-.14933408-.224-.32799896-.224-.536s.07466592-.38133264.224-.52l6.064-6.08c.14933408-.14933408.32799896-.224.536-.224s.38666592.07466592.536.224l.688.704c.14933408.13866736.22133336.3146656.216.528s-.08266592.39466592-.232.544l-3.76 3.584h8.976c.2133344 0 .3919993.07199928.536.216s.216.3226656.216.536v.992c0 .20266768-.0719993.37866592-.216.528s-.3226656.224-.536.224h-8.976l3.76 3.584c.14933408.1493341.22666664.3306656.232.544s-.06666592.3893326-.216.528z" fill="#fff" fill-rule="evenodd"/></svg>