<svg fill="none" height="14" viewBox="0 0 17 14" width="17" xmlns="http://www.w3.org/2000/svg"><path clip-rule="evenodd" d="m16.2703 3.5v9c0 .8281-.6833 1.5-1.5254 1.5h-13.21956c-.842116 0-1.52534-.6719-1.52534-1.5v-9c0-.82812.683224-1.5 1.52534-1.5h2.79645l.39087-1.028125c.22244-.584375.79127-.971875 1.42682-.971875h3.98812c.6356 0 1.2044.3875 1.4268.971875l.3941 1.028125h2.7964c.8421 0 1.5254.67188 1.5254 1.5zm-4.1622 4.44595c0-2.08739-1.6964-3.78379-3.78378-3.78379s-3.78378 1.6964-3.78378 3.78379c0 2.08735 1.6964 3.78375 3.78378 3.78375s3.78378-1.6964 3.78378-3.78375zm-1.1351 0c0 1.45976-1.18891 2.64865-2.64868 2.64865-1.45976 0-2.64864-1.18889-2.64864-2.64865 0-1.45977 1.18888-2.64865 2.64864-2.64865 1.45977 0 2.64868 1.18888 2.64868 2.64865z" fill="#6c777c" fill-rule="evenodd"/></svg>