<svg height="14" viewBox="0 0 9 14" width="9" xmlns="http://www.w3.org/2000/svg"><path d="m8.064 7.36-6.08 6.08c-.13866736.1386674-.31199896.208-.52.208s-.38666592-.0693326-.536-.208l-.72-.704c-.13866736-.1493341-.208-.327999-.208-.536s.06933264-.3866659.208-.536l4.816-4.832-4.816-4.832c-.13866736-.14933408-.208-.32799896-.208-.536s.06933264-.38133264.208-.52l.72-.72c.14933408-.14933408.32799896-.224.536-.224s.38133264.07466592.52.224l6.08 6.08c.14933408.13866736.224.31199896.224.52s-.07466592.38666592-.224.536z" fill="#334750" fill-rule="evenodd"/></svg>