<svg height="20" viewBox="0 0 20 20" width="20" xmlns="http://www.w3.org/2000/svg"><path d="m10 0c1.8181909 0 3.5055019.45454091 5.0619835 1.36363636 1.5013849.88154711 2.692833 2.07988224 3.5743801 3.59504133.9090955 1.55648161 1.3636364 3.23690557 1.3636364 5.04132231 0 1.8044167-.4545409 3.4848407-1.3636364 5.0413223-.8815471 1.5151591-2.0798822 2.7134942-3.5950413 3.5950413-1.5564816.9090955-3.2369056 1.3636364-5.0413223 1.3636364-1.80441674 0-3.4848407-.4545409-5.04132231-1.3636364-1.51515909-.8815471-2.71349422-2.0729952-3.59504133-3.5743801-.90909545-1.5564816-1.36363636-3.2437926-1.36363636-5.0619835 0-1.81819091.45454091-3.50550186 1.36363636-5.06198347.88154711-1.50138492 2.07988224-2.69283306 3.59504133-3.57438017 1.55648161-.90909545 3.23690557-1.36363636 5.04132231-1.36363636zm0 1.9214876c-1.4600624 0-2.81679814.36501013-4.07024793 1.09504133-1.22590145.71625702-2.19696612 1.68732169-2.91322314 2.91322314-.7300312 1.25344979-1.09504133 2.61018553-1.09504133 4.07024793s.36501013 2.8167981 1.09504133 4.0702479c.71625702 1.2259015 1.68732169 2.1969661 2.91322314 2.9132232 1.25344979.7300312 2.61018553 1.0950413 4.07024793 1.0950413s2.8167981-.3650101 4.0702479-1.0950413c1.2259015-.7162571 2.1969661-1.6873217 2.9132232-2.9132232.7300312-1.2534498 1.0950413-2.6101855 1.0950413-4.0702479s-.3650101-2.81679814-1.0950413-4.07024793c-.7162571-1.22590145-1.6873217-2.19696612-2.9132232-2.91322314-1.2534498-.7300312-2.6101855-1.09504133-4.0702479-1.09504133zm5.661157 5.26859504c.0964192.09641922.1446281.21005445.1446281.3409091 0 .13085464-.0482089.24448987-.1446281.34090909l-6.96280989 6.90082647c-.09641922.0964192-.21005444.1446281-.34090909.1446281s-.24448988-.0482089-.34090909-.1446281l-3.67768595-3.6983471c-.09641922-.0964192-.1446281-.2100545-.1446281-.3409091 0-.1308547.04820888-.2444899.1446281-.3409091l.92975206-.90909093c.09641922-.09641921.21005444-.14462809.34090909-.14462809s.24448988.04820888.34090909.14462809l2.41735538 2.43801653 5.7024793-5.66115702c.0964192-.09641922.2100545-.1446281.3409091-.1446281.1308547 0 .2444899.04820888.3409091.1446281z" fill="#72c600" fill-rule="evenodd"/></svg>