<?xml version="1.0" encoding="UTF-8"?>
<svg width="14px" height="14px" viewBox="0 0 14 14" version="1.1" xmlns="http://www.w3.org/2000/svg" xmlns:xlink="http://www.w3.org/1999/xlink">
    <!-- Generator: sketchtool 64 (101010) - https://sketch.com -->
    <title>07FC69E9-B4F6-4C4E-B809-83B6073DA9D4</title>
    <desc>Created with sketchtool.</desc>
    <defs>
        <path d="M8.58197932,7.01033973 L13.8345643,1.7577548 C13.9448553,1.66125013 14,1.54751419 14,1.41654357 C14,1.28557295 13.9448553,1.17183702 13.8345643,1.07533235 L12.9246677,0.165435746 C12.828163,0.0551446972 12.714427,0 12.5834564,0 C12.4524858,0 12.3387499,0.0551446972 12.2422452,0.165435746 L6.98966027,5.41802068 L1.73707533,0.165435746 C1.64057066,0.0551446972 1.52683473,0 1.39586411,0 C1.26489349,0 1.15115755,0.0551446972 1.05465288,0.165435746 L0.144756278,1.07533235 C0.04825161,1.17183702 0,1.28557295 0,1.41654357 C0,1.54751419 0.04825161,1.66125013 0.144756278,1.7577548 L5.39734121,7.01033973 L0.144756278,12.2629247 C0.04825161,12.3594293 0,12.4731653 0,12.6041359 C0,12.7351065 0.04825161,12.8488425 0.144756278,12.9453471 L1.05465288,13.8552437 C1.15115755,13.9517484 1.26489349,14 1.39586411,14 C1.52683473,14 1.64057066,13.9517484 1.73707533,13.8552437 L6.98966027,8.60265879 L12.2422452,13.8552437 C12.3387499,13.9517484 12.4524858,14 12.5834564,14 C12.714427,14 12.828163,13.9517484 12.9246677,13.8552437 L13.8345643,12.9453471 C13.9448553,12.8488425 14,12.7351065 14,12.6041359 C14,12.4731653 13.9448553,12.3594293 13.8345643,12.2629247 L8.58197932,7.01033973 Z" id="path-1"></path>
    </defs>
    <g id="Page-1" stroke="none" stroke-width="1" fill="none" fill-rule="evenodd">
        <g id="Exportable-assets" transform="translate(-35.000000, -334.000000)">
            <g id="close" transform="translate(24.000000, 323.000000)">
                <rect id="Rectangle-Copy-5" fill-opacity="0" fill="#D8D8D8" x="0" y="0" width="36" height="36"></rect>
                <g id="Icons/Major/Close-Copy" transform="translate(11.000000, 11.000000)">
                    <mask id="mask-2" fill="white">
                        <use xlink:href="#path-1"></use>
                    </mask>
                    <use id="Icon-Color" fill="#FFFFFF" xlink:href="#path-1"></use>
                </g>
            </g>
        </g>
    </g>
</svg>