<?xml version="1.0" encoding="UTF-8"?>
<svg width="48px" height="48px" viewBox="0 0 48 48" version="1.1" xmlns="http://www.w3.org/2000/svg" xmlns:xlink="http://www.w3.org/1999/xlink">
    <title>2F9F4994-E18C-43A7-9EFF-B70719136D78</title>
    <defs>
        <path d="M13.9717306,11.9852921 L15.0738264,10.8654206 C15.1567803,10.7824667 15.2575084,10.7617286 15.376014,10.8032055 C15.4945195,10.8446824 15.5537713,10.9305977 15.5537713,11.0609537 L15.5537713,16.1092635 C15.5537713,16.571435 15.3908287,16.96546 15.0649385,17.2913501 C14.7390484,17.6172403 14.3450234,17.7801829 13.8828519,17.7801829 L1.67091944,17.7801829 C1.20874792,17.7801829 0.814722986,17.6172403 0.488832814,17.2913501 C0.162942642,16.96546 0,16.571435 0,16.1092635 L0,3.89733104 C0,3.43515952 0.162942642,3.04113459 0.488832814,2.71524442 C0.814722986,2.38935424 1.20874792,2.2264116 1.67091944,2.2264116 L11.1631639,2.2264116 C11.29352,2.2264116 11.3794352,2.28566347 11.4209121,2.40416899 C11.462389,2.52267451 11.4416509,2.62340269 11.358697,2.70635655 L10.2566012,3.80845235 C10.1973485,3.8677051 10.1262462,3.89733104 10.0432924,3.89733104 L1.67091944,3.89733104 L1.67091944,16.1092635 L13.8828519,16.1092635 L13.8828519,12.1808253 C13.8828519,12.109722 13.9124778,12.0445449 13.9717306,11.9852921 Z M19.4111066,4.96387536 L10.2921527,14.0828293 L7.14584695,14.4383441 C6.84958316,14.4738957 6.57406196,14.420569 6.3192751,14.2783624 C6.06448824,14.1361558 5.86599447,13.937662 5.72378785,13.6828752 C5.58158123,13.4280883 5.52825455,13.1525671 5.56380621,12.8563033 L5.91932098,9.70999759 L15.0382749,0.591043644 C15.2989871,0.330331507 15.6041342,0.155538491 15.9537255,0.0666593533 C16.3033167,-0.0222197844 16.6499402,-0.0222197844 16.9936062,0.0666593533 C17.3372722,0.155538491 17.6394567,0.330331507 17.9001688,0.591043644 L19.3933309,2.10198143 C19.654043,2.36269357 19.8317986,2.66487811 19.9266031,3.0085441 C20.0214075,3.3522101 20.0243701,3.69883354 19.9354909,4.04842482 C19.8466118,4.39801609 19.6718188,4.70316322 19.4111066,4.96387536 Z M15.9803891,6.04819542 L13.9539549,4.02176121 L7.50136172,10.4743543 L7.25250138,12.7496489 L9.52779593,12.5007886 L15.9803891,6.04819542 Z M18.2201321,3.27518018 L16.7269701,1.78201814 C16.6558668,1.71091483 16.5699516,1.6753637 16.4692219,1.6753637 C16.3684922,1.6753637 16.282577,1.71091483 16.2114737,1.78201814 L15.1449294,2.84856246 L17.1535878,4.87499667 L18.2201321,3.79067661 C18.2912355,3.7195733 18.3267866,3.63365809 18.3267866,3.5329284 C18.3267866,3.43219871 18.2912355,3.34628349 18.2201321,3.27518018 Z" id="path-1"></path>
    </defs>
    <g id="_Question-Type---Image-Upload" stroke="none" stroke-width="1" fill="none" fill-rule="evenodd">
        <g id="Image-Upload---No-Guide-Image---Image-Uploaded" transform="translate(-300.000000, -419.000000)">
            <g id="edit-image" transform="translate(300.000000, 419.000000)">
                <rect id="bg" fill-opacity="0.2" fill="#000000" x="0" y="0" width="48" height="48" rx="3"></rect>
                <g id="Icons/Nav/Reference-Data-Copy-2" transform="translate(16.000000, 15.000000)">
                    <mask id="mask-2" fill="white">
                        <use xlink:href="#path-1"></use>
                    </mask>
                    <use id="Icon-Color" fill="#FFFFFF" xlink:href="#path-1"></use>
                </g>
            </g>
        </g>
    </g>
</svg>