<svg fill="none" height="20" viewBox="0 0 20 20" width="20" xmlns="http://www.w3.org/2000/svg"><path clip-rule="evenodd" d="m17.5063 3.35886c.3291.32914.4937.73142.4937 1.20685v9.58169c0 .4633-.1676.8625-.5029 1.1977-.3352.3353-.7405.5029-1.216.5029h-2.8525v1.7189c0 .4754-.1676.8807-.5029 1.216-.3352.3352-.7406.5028-1.216.5028h-7.99084c-.47543 0-.88076-.1676-1.216-.5028-.33524-.3353-.50286-.7406-.50286-1.216v-11.42861c0-.47544.16762-.88076.50286-1.216s.74057-.50286 1.216-.50286h2.85257v-1.70057c0-.47543.16762-.88076.50286-1.216s.74056-.50286 1.216-.50286h6.14401c.4754 0 .8777.16457 1.2068.49371zm-5.9977 14.20804c.0487 0 .0944-.0214.1371-.064.0427-.0427.064-.0884.064-.1372v-1.5177h-3.41941c-.47543 0-.88076-.1676-1.216-.5029-.33524-.3352-.50286-.7344-.50286-1.1977v-8.00911h-2.63314c-.06096 0-.11277.02133-.15543.064-.04267.04266-.064.09447-.064.15542v11.00799c0 .061.02133.1097.064.1463.04266.0366.09447.0549.15543.0549zm4.5714-3.4195c.061 0 .1097-.0213.1463-.064.0366-.0426.0548-.0944.0548-.1554v-7.22286h-3.1451c-.2316 0-.4297-.08228-.5943-.24685-.1646-.16458-.2468-.36267-.2468-.59429v-3.14514h-3.78519c-.06095 0-.11276.01828-.15542.05485-.04267.03658-.064.08534-.064.14629v11.008c0 .061.02133.1128.064.1554.04266.0427.09447.064.15542.064zm.2011-9.14283v-.34743c0-.06095-.0182-.10971-.0548-.14628l-1.7372-1.73715c-.0365-.03657-.0853-.05485-.1462-.05485h-.3475v2.28571z" fill="#6c777c" fill-rule="evenodd"/></svg>