<?xml version="1.0" encoding="UTF-8"?>
<svg width="11px" height="18px" viewBox="0 0 11 18" version="1.1" xmlns="http://www.w3.org/2000/svg" xmlns:xlink="http://www.w3.org/1999/xlink">
    <!-- Generator: sketchtool 64 (101010) - https://sketch.com -->
    <title>B77BB1AE-86B7-4C8D-A722-62F2801DE4F1</title>
    <desc>Created with sketchtool.</desc>
    <g id="Page-1" stroke="none" stroke-width="1" fill="none" fill-rule="evenodd">
        <g id="Exportable-assets" transform="translate(-118.000000, -124.000000)">
            <g id="flash-off" transform="translate(106.000000, 115.000000)">
                <rect id="Rectangle-Copy-3" fill-opacity="0" fill="#D8D8D8" x="0" y="0" width="36" height="36"></rect>
                <path d="M22.175248,14.625 L18.2084181,14.625 L19.6727764,10.0617187 C19.8102749,9.52734375 19.4149668,9 18.8752855,9 L13.9253417,9 C13.5128464,9 13.1622254,9.31289062 13.107226,9.73125 L12.0072385,18.16875 C11.9419268,18.675 12.3269224,19.125 12.8253542,19.125 L16.9056204,19.125 L15.3209509,25.9628906 C15.1972023,26.4972656 15.5959477,27 16.1218793,27 C16.410626,27 16.6856229,26.8453125 16.8368711,26.578125 L22.8868024,15.890625 C23.2064863,15.3316406 22.8111782,14.625 22.175248,14.625 Z" id="flash-on" fill="#FFFFFF" fill-rule="nonzero"></path>
            </g>
        </g>
    </g>
</svg>