<?xml version="1.0" encoding="UTF-8"?>
<svg width="20px" height="18px" viewBox="0 0 20 18" version="1.1" xmlns="http://www.w3.org/2000/svg" xmlns:xlink="http://www.w3.org/1999/xlink">
    <!-- Generator: sketchtool 64 (101010) - https://sketch.com -->
    <title>19F7F3F0-EC11-4953-8F1F-3683E4BC9465</title>
    <desc>Created with sketchtool.</desc>
    <g id="Page-1" stroke="none" stroke-width="1" fill="none" fill-rule="evenodd">
        <g id="Exportable-assets" transform="translate(-114.000000, -242.000000)">
            <g id="flash-on" transform="translate(106.000000, 233.000000)">
                <rect id="Rectangle-Copy-6" fill-opacity="0" fill="#D8D8D8" x="0" y="0" width="36" height="36"></rect>
                <path d="M19.8752855,9 C20.4149668,9 20.8102749,9.52734375 20.6727764,10.0617187 L20.6727764,10.0617187 L19.2084181,14.625 L23.175248,14.625 C23.8111782,14.625 24.2064863,15.3316406 23.8868024,15.890625 L23.8868024,15.890625 L22.109,19.03 L27.8069958,23.4860854 C28.024811,23.6574759 28.0641865,23.9752757 27.8948094,24.1959964 L27.2810518,24.9950811 C27.1116748,25.2158017 26.7972959,25.2553291 26.5791682,25.0839385 L21.105,20.802 L17.8368711,26.578125 C17.7045289,26.8119141 17.4774416,26.9595703 17.2292999,26.9928314 L17.1218793,27 C16.5959477,27 16.1972023,26.4972656 16.3209509,25.9628906 L16.3209509,25.9628906 L17.9056204,19.125 L13.8253542,19.125 C13.3269224,19.125 12.9419268,18.675 13.0072385,18.16875 L13.0072385,18.16875 L13.445,14.811 L8.19300418,10.704525 C7.975189,10.5331345 7.93581351,10.2153347 8.1051906,9.99461404 L8.71894816,9.19552936 C8.88832524,8.97480869 9.20270412,8.93496514 9.42083181,9.1066719 L13.747,12.49 L14.107226,9.73125 C14.1576421,9.34775391 14.4564625,9.05288086 14.8236422,9.00639852 L14.9253417,9 Z" id="flash-off" fill="#FFFFFF" fill-rule="nonzero"></path>
            </g>
        </g>
    </g>
</svg>