<svg height="14" viewBox="0 0 14 14" width="14" xmlns="http://www.w3.org/2000/svg"><path d="m8.048 12.736-.688.704c-.149.139-.328.208-.536.208s-.387-.069-.536-.208l-6.064-6.08c-.149-.149-.224-.328-.224-.536s.075-.381.224-.52l6.064-6.08c.149-.149.328-.224.536-.224s.387.075.536.224l.688.704c.149.139.221.315.216.528s-.083.395-.232.544l-3.76 3.584h8.976c.213 0 .392.072.536.216s.216.323.216.536v.992c0 .203-.072.379-.216.528s-.323.224-.536.224h-8.976l3.76 3.584c.149.149.227.331.232.544s-.067.389-.216.528z" fill="#fff" fill-rule="evenodd" transform="matrix(-1 0 0 1 14 0)"/></svg>