<?xml version="1.0" encoding="UTF-8"?>
<svg width="44px" height="44px" viewBox="0 0 44 44" version="1.1" xmlns="http://www.w3.org/2000/svg" xmlns:xlink="http://www.w3.org/1999/xlink">
    <title>334DC72A-0311-465E-97AD-4160F47F2136</title>
    <defs>
        <rect id="path-1" x="0" y="0" width="44" height="44" rx="2"></rect>
    </defs>
    <g id="_Question-Type---Image-Upload" stroke="none" stroke-width="1" fill="none" fill-rule="evenodd">
        <g id="Camera-Controls---No-Photos-Permission" transform="translate(-26.000000, -696.000000)">
            <g id="gallery-placeholder" transform="translate(26.000000, 696.000000)">
                <mask id="mask-2" fill="white">
                    <use xlink:href="#path-1"></use>
                </mask>
                <use id="Mask" fill="#DFE3E8" xlink:href="#path-1"></use>
                <path d="M32,30.7272727 L32,31.5454545 C32,32.9010795 30.8359583,34 29.4,34 L8.6,34 C7.16404167,34 6,32.9010795 6,31.5454545 L6,18.4545455 C6,17.0989205 7.16404167,16 8.6,16 L9.46666667,16 L9.46666667,18.4545455 L8.925,18.4545455 C8.74550746,18.4545455 8.6,18.5919126 8.6,18.7613636 L8.6,31.2386364 C8.6,31.4080874 8.74550746,31.5454545 8.925,31.5454545 L29.075,31.5454545 C29.2544925,31.5454545 29.4,31.4080874 29.4,31.2386364 L29.4,30.7272727 L32,30.7272727 Z M34.671875,13 L14.328125,13 C14.1469066,13 14,13.1364132 14,13.3046875 L14,25.6953125 C14,25.8635868 14.1469066,26 14.328125,26 L34.671875,26 C34.8530934,26 35,25.8635868 35,25.6953125 L35,13.3046875 C35,13.1364132 34.8530934,13 34.671875,13 Z M35.3,10 C36.7911875,10 38,11.1599716 38,12.5909091 L38,26.4090909 C38,27.8400284 36.7911875,29 35.3,29 L13.7,29 C12.2088125,29 11,27.8400284 11,26.4090909 L11,12.5909091 C11,11.1599716 12.2088125,10 13.7,10 L35.3,10 Z M20,16.5 C20,17.3284125 19.3284125,18 18.5,18 C17.6715875,18 17,17.3284125 17,16.5 C17,15.6715875 17.6715875,15 18.5,15 C19.3284125,15 20,15.6715875 20,16.5 Z M17,21.5230521 L19.0580729,19.4839563 C19.3021354,19.2421442 19.6978646,19.2421442 19.9419792,19.4839563 L22,21.5230521 L27.3914062,16.181359 C27.6354687,15.939547 28.0311979,15.939547 28.2753125,16.181359 L32,19.8717534 L32,24 L17,24 L17,21.5230521 Z" id="Shape" fill="#66757B" mask="url(#mask-2)"></path>
            </g>
        </g>
    </g>
</svg>