<svg height="16" viewBox="0 0 20 16" width="20" xmlns="http://www.w3.org/2000/svg"><path d="m19.7819315 14.6728972-18.62928352-14.56355141c-.10319482-.08262198-.23498451-.12086599-.36637683-.10631877-.13139232.01454721-.25162428.08069402-.33424623.18388887l-.31152648.38909657c-.08281767.10323254-.1211795.2351637-.10662837.36670832.01455114.13154463.08082048.25190175.18419847.33453779l18.62928346 14.56355143c.1031948.082622.2349845.120866.3663768.1063187.1313924-.0145472.2516243-.080694.3342463-.1838888l.3115265-.3890966c.0828176-.1032325.1211795-.2351637.1066283-.3667083-.0145511-.1315446-.0808204-.2519018-.1841984-.3345378zm-10.50498446-10.10996885 4.19906546 3.28286604c-.0691589-1.86728972-1.5919004-3.35981308-3.4760125-3.35981308-.24303661.00045511-.48536377.02624348-.72305296.07694704zm1.44610596 6.82461055-4.19906546-3.282866c.0694704 1.86697819 1.59221184 3.3595016 3.47601246 3.3595016.2430168-.0005191.4853266-.0262012.723053-.0766356zm-.723053-7.89844233c3.0732087 0 5.8906542 1.71339564 7.4121495 4.48598131-.3729645.68235883-.8337986 1.31286366-1.3707165 1.87538941l1.175701.91900311c.6545743-.7002509 1.2091535-1.48766963 1.647975-2.33987538.1445256-.2858878.1445256-.62345801 0-.9093458-1.6909657-3.29626168-5.035514-5.52647975-8.865109-5.52647975-1.14330218 0-2.23395639.21806854-3.25950156.58598131l1.44579439 1.13052959c.59003116-.13395638 1.19439253-.2211838 1.81370717-.2211838zm0 8.97196263c-3.07320872 0-5.89034268-1.7133956-7.41214953-4.48598132.37345195-.68235093.83481368-1.31275643 1.37227414-1.87507788l-1.17570093-.91900312c-.65447196.7001495-1.20894796 1.48746558-1.64766356 2.33956387-.14452557.28588779-.14452557.623458 0 .90934579 1.6894081 3.29626166 5.03395639 5.52647976 8.86323988 5.52647976 1.1433022 0 2.2339564-.2196262 3.2595016-.5859813l-1.4457944-1.1302181c-.5900312.1336449-1.194081.2208723-1.8137072.2208723z" fill="#387cb8" fill-rule="evenodd"/></svg>