<svg height="127" viewBox="0 0 212 127" width="212" xmlns="http://www.w3.org/2000/svg" xmlns:xlink="http://www.w3.org/1999/xlink"><linearGradient id="a" x1="50.000014%" x2="50.000014%" y1="100%" y2="0%"><stop offset="0" stop-color="#808080" stop-opacity=".25"/><stop offset=".53514" stop-color="#808080" stop-opacity=".12"/><stop offset="1" stop-color="#808080" stop-opacity=".1"/></linearGradient><g fill="none"><g fill="#f2f2f2"><path d="m34.1232877 40v6.3870968c5.5852022 0 10.1129032 4.527701 10.1129032 10.1129032s-4.527701 10.1129032-10.1129032 10.1129032v6.3870968h33v-33z"/><circle cx="34.123288" cy="56" r="7"/><path d="m154.123288 64.0177959-13-8.0177959v62h13z"/><path d="m121.123288 117h13v-65.1226246l-13-7.8773754z"/><path d="m115.123288 39.5235135-64.0000003-39.5235135v35.6621622h20.5150685v41.1081081h-20.5150685v40.2297297h64.0000003z"/><path d="m161.123288 69v50h6.468085l17.531915-34.4197053z"/></g><path d="m185.929456 93.9483577c-10.769555 7.9809533-13.806168 22.0024343-13.806168 22.0024343s14.424281 1.081803 25.193841-6.89915c10.769559-7.980953 13.806159-22.0024336 13.806159-22.0024336s-14.424278-1.0818036-25.193832 6.8991493z" fill="#3f3d56"/><path d="m172.445429 116s-.161441-.086568-.453625-.258859c-.233014-.137562-.55285-.329511-.939289-.574672-3.456383-2.186971-12.409875-8.619496-16.082314-18.5444657-4.594695-12.4265343.83079-25.6220033.83079-25.6220033s11.835168 6.3891469 16.862622 17.8653642c.219059.4942044.421817.9985733.612606 1.5126377 3.998099 10.8122601.40976 22.2064291-.589461 24.9837901-.150359.415932-.241329.638208-.241329.638208z" fill="#334750"/><path d="m172.544072 117-.161536-.119686c-.115454-.085118-11.563366-8.677324-14.504837-21.7008648-2.941641-13.0235413 3.663614-25.8712884 3.730782-25.9994857l.094024-.1799635.161536.1196857c.115454.0851168 11.563366 8.6773239 14.504836 21.7008651 2.94164 13.0235412-3.663615 25.8712882-3.730783 25.9994852zm-10.721173-47.4670591c-.793903 1.6181064-6.326052 13.5238253-3.605808 25.5666016 2.719913 12.0427765 12.799027 20.2682805 14.206593 21.3675115.793903-1.618107 6.326051-13.523825 3.605807-25.5666018-2.719913-12.0427709-12.799027-20.2682703-14.206592-21.3675113z" fill="#3f3d56"/><path d="m171.990807 116.265581c-.234749.154365-.439809.284211-.608232.390366-.371135.228802-.576908.344053-.576908.344053s-.097363-.330541-.245169-.935406c-.814973-3.30923-3.148275-14.842487.756755-25.4356817.205351-.55492.423116-1.0978908.653297-1.6289123.191723.5085504.36918 1.0275603.536161 1.5565473 3.499185 11.1261257.358627 22.8510497-.515904 25.7090337z" fill="#000" opacity=".1"/><path d="m190.611746 97.5752463c-5.287028 12.1502657-18.561471 18.4247537-18.561471 18.4247537s-4.702475-13.424987.584554-25.575248c5.287029-12.1502608 18.561471-18.424752 18.561471-18.424752s4.702475 13.4249821-.584554 25.5752463z" fill="#334750"/><path d="m157.945508 94.2883645h47.527851v.3536543h-47.527851z" fill="#3f3d56" transform="matrix(.38683393 -.9221494 .9221494 .38683393 24.30704 225.486096)"/><path d="m209.123288 120c0 1.747714-9.561462 3.346236-25.369586 4.5733-2.874197.22227-5.955228.432358-9.221533.630277-2.823841.17051-5.782575.330865-8.876201.481066-2.998313.143115-6.111133.276077-9.338459.398887-10.194594.389725-21.462961.669842-33.434595.809909-2.904781.033488-5.84913.059878-8.833047.079168-3.106216.01827-6.248409.027393-9.426579.027393-57.714217 0-104.50000033-3.133096-104.50000033-7s46.78578333-7 104.50000033-7c24.846182 0 47.665312.581549 65.599375 1.549813.660103.036537 1.313604.072058 1.960504.106562.003767.002437.00819.003508.012591.003047 22.590714 1.284898 36.92753 3.200091 36.92753 5.340578z" fill="#3f3d56"/><path d="m209.123288 120c0 1.747714-9.561462 3.346236-25.369586 4.5733-2.874197.22227-5.955228.432358-9.221533.630277-2.823841.17051-5.782575.330865-8.876201.481066-2.998313.143115-6.111133.276077-9.338459.398887-10.194594.389725-21.462961.669842-33.434595.809909-2.904781.033488-5.84913.059878-8.833047.079168-3.106216.01827-6.248409.027393-9.426579.027393-57.714217 0-104.50000033-3.133096-104.50000033-7s46.78578333-7 104.50000033-7c24.846182 0 47.665312.581549 65.599375 1.549813.660103.036537 1.313604.072058 1.960504.106562.003767.002437.00819.003508.012591.003047 22.590714 1.284898 36.92753 3.200091 36.92753 5.340578z" fill="#000" opacity=".15"/><path d="m201.123288 118.499985c0 1.373242-8.875136 2.628978-23.548623 3.59358-2.666782.173629-5.527961.338488-8.558797.494578-2.620834.133281-5.367142.258972-8.238925.377072-2.783421.113998-5.672876.218643-8.668367.313934-9.46363.306918-19.92399.526146-31.036466.636637-2.695058.026307-5.427817.046769-8.198278.061384-2.884154.015777-5.800708.023377-8.749661.02283-53.5724524 0-97.00088333-2.462396-97.00088333-5.500015s43.42843093-5.499985 97.00088333-5.499985c11.845885 0 23.195172.121014 33.68911.341995h.026509c9.924882.208705 19.084554.506855 27.175021.876911.613236.028061 1.219993.055538 1.820269.08243.003494.002746.007942.004007.012371.003507 3.705925.17889 7.173272.37181 10.368462.578761.035346.001754.070691.005262.106036.007016 14.825465.966355 23.801339 2.227353 23.801339 3.609365z" fill="#3f3d56"/><path d="m177.123288 115.615865c-1.300525 8.88082-9.50101 5.904615-19.423859 5.904615-10.482968 0-19.042278 3.321806-19.576141-7.52048 9.830079.218758 18.902257.531268 26.915443.919149.607379.029413 1.208339.058213 1.802882.0864.003461.002879.007866.004201.012252.003677 3.670534.187506 7.10476.389719 10.269423.606639z" fill="#000" opacity=".1"/><path d="m57.1232877 112.901727c0 3.037696-1.7907049 4.098273-4 4.098273-.0511753 0-.1023471-.000745-.1531522-.001859-.1023487-.002227-.2039589-.00705-.3040971-.014103-1.9939236-.142179-3.5427507-1.257333-3.5427507-4.082311 0-2.922989 3.7043715-6.611804 3.9834311-6.885393l.0003684-.000372c.0106775-.010765.0162005-.015962.0162005-.015962s4 3.864403 4 6.901727z" fill="#334750"/><path d="m52.5615337 116.537016 1.3088147-2.061372-1.3121091 2.287849-.0032928.236507c-.0915594-.002228-.182458-.007051-.2720399-.014105l.1409654-3.039329-.0009873-.02376.0023056-.004086.0135024-.287373-1.315405-2.293407 1.3193523 2.078074.0032944.06089.1063785-2.296389-1.1260301-2.3699 1.1398621 1.96706.1109881-4.761339.0003296-.016336v.015965l-.0184431 3.754417 1.121091-1.488475-1.1257006 1.811859-.0296398 2.056168 1.0469858-1.973373-1.0512674 2.275967-.0164671 1.143183 1.5192663-2.746751-1.525202 3.145509z" fill="#3f3d56"/><path d="m137.123288 111.225586c0-11.7225673 8.954305-21.225586 20-21.225586 11.045694 0 20 9.5030187 20 21.225586 0 11.722568-8.954304 8.313355-20 8.313355-11.045697 0-20 3.409213-20-8.313355z" fill="#3f3d56"/><path d="m27.946407 97h1v24h-1z" fill="#3f3d56"/><circle cx="27.123288" cy="97" fill="#3f3d56" r="3"/><path d="m28.1232877 112s-.4651174-11.196142-10-9.894742" fill="#3f3d56"/><path d="m125.841467 101.082273c.085178.307988.180206.613942.281821.917727-.455762-.45809-.902913-.928618-1.358669-1.383911.182816.058262.365099.116436.537438.185488.187925.076261.368506.170231.53941.280696zm-2.207476-1.5299031c-2.685954-2.3881573-5.798142-4.2370593-8.550673-6.5523699 1.503078.7561637 2.965124 1.6372686 4.415497 2.4821945 1.720337 1.0021974 3.461115 1.9654288 5.222334 2.8896942-.286919.4596206-.655696.8600542-1.087158 1.1804812zm1.148899-6.013516c.042788-.0446848.085652-.0896362.128591-.134854.001234.3392924.003745.6565234.007721.9445435-.240652-.0816418-.480634-.1653648-.719946-.251169.205811-.1734685.400741-.3600108.583634-.5585205zm-23.659602 6.4653881c1.106828-1.2783753 2.068348-2.6809513 2.866138-4.180856 1.066297 1.9049518 2.79902 3.2785467 4.27291 4.873965-2.37469-.320481-4.753061-.58501-7.139048-.693109z" fill="url(#a)"/><path d="m21.1232877 117.901727c0 3.037696-1.7907049 4.098273-4 4.098273-.0511753 0-.1023471-.000745-.1531522-.001859-.1023487-.002227-.2039589-.00705-.3040971-.014103-1.9939236-.142179-3.5427507-1.257333-3.5427507-4.082311 0-2.922989 3.7043715-6.611804 3.9834311-6.885393l.0003684-.000372c.0106775-.010765.0162005-.015962.0162005-.015962s4 3.864403 4 6.901727z" fill="#334750"/><path d="m17.5615337 121.537016 1.3088147-2.061372-1.3121091 2.287849-.0032928.236507c-.0915594-.002228-.182458-.007051-.2720399-.014105l.1409654-3.039329-.0009873-.02376.0023056-.004086.0135024-.287373-1.315405-2.293407 1.3193523 2.078074.0032944.06089.1063785-2.296389-1.1260301-2.3699 1.1398621 1.96706.1109881-4.761339.0003296-.016336v.015965l-.0184431 3.754417 1.121091-1.488475-1.1257006 1.811859-.0296398 2.056168 1.0469858-1.973373-1.0512674 2.275967-.0164671 1.143183 1.5192663-2.746751-1.525202 3.145509z" fill="#3f3d56"/><circle cx="23.623288" cy="91.5" fill="#334750" r="1.5"/><path d="m137.996412 66.160992s6.346242-1.4413656 7.045983 4.3014987c.699741 5.7428642-3.370282 6.8268747-3.370282 6.8268747l-2.577517.7106346-9.971308-2.6919676 1.399482-4.1276837z" fill="#2f2e41"/><circle cx="134.623288" cy="58.5" fill="#2f2e41" r="8.5"/><path d="m104.123288 75 1.81824.3703567 6.18176 9.2592866-2.727269.3703567z" fill="#2f2e41"/><path d="m62.1232877 111.157875c.5000857 1.655791 1.1161079 3.27388 1.8434442 4.842125 2.0904976-.44008 4.1471365-1.02956 6.1542683-1.763956.0618779-.022642-1.1510923-1.618531-1.2784535-1.748905-.4805588-.491896-1.1026377-1.066648-1.7379685-1.344721-.640603-.280379-1.4296853-.066389-2.1154355-.031161-.9543638.049029-1.9096488.064568-2.865855.046618z" fill="#fbbebe"/><path d="m66.8409612 114.027322c-.9900476-.312719-1.5917048-1.318372-1.994402-2.28821s-.7274522-2.027361-1.4912647-2.739112c-.292648.014127-.5283916.254201-.673184.512723-.1447925.258521-.2310106.549977-.3983468.794074-.3185636.46467-.8784766.689214-1.2789642 1.083203-.4198626.413048-.6493777.997465-1.0839861 1.394484-.5459025.498682-1.3175853.622508-2.0338096.787453-1.1077802.255411-2.1777477.655857-3.1827272 1.191166-.3701921.225265-.7660873.404366-1.1790108.533379-.4543965.088121-.9196675.103804-1.3788753.046479l-3.1666571-.227795c-.2817976-.036639-.5677413-.02401-.8452922.037333-.65097.184502-1.055152.917905-1.0073275 1.602211.0478244.684307.4695474 1.29753 1.0021236 1.719906.5512136.398173 1.1593294.709207 1.8033969.922387 2.7584589 1.051138 5.5983605 1.870033 8.4906297 2.4483l.0015571.632685c2.0111458.998308 4.2222114 1.517999 6.4633571 1.519155.16571.012577.3319246-.016503.4837766-.08464.2222533-.121774.3251482-.383817.4073439-.626223.7597733-2.242722 1.2043628-4.581883 1.3207912-6.949206.0562058-.600149.0100926-1.205584-.1363368-1.790006-.1724643-.575513.4213932-.333666-.1281332-.558926" fill="#2f2e41"/><path d="m127.57275 102.379813c-9.40694.535861-18.704478-2.083803-28.1235319-2.363814-1.1710066-.0348126-2.3547595-.0322339-3.4981548.212092-1.2095409.258461-2.3371065.779171-3.461884 1.277056-5.0517391 2.236174-10.2778393 4.088388-15.4975716 5.938084l-5.9960385 2.124789c-1.1982203.424609-2.4398163.855783-3.7152466.781624-.5717117-.033242-1.2735467-.115551-1.5952017.337825-.9754552 1.374921-.5145049 3.394936.1299995 4.938003.2092008.500864.5630434 1.04125 1.1236944 1.098231.3946968.040114.7617098-.177262 1.1452487-.27499 1.0914343-.278095 2.1795469.420373 3.3027589.534076 1.3876919.14048 2.6762626-.611576 3.9860237-1.072141 2.1722903-.763863 4.5475229-.739863 6.8308097-1.101639 3.8286196-.606627 7.377154-2.29798 10.6942248-4.224981 1.2631433-.733805 2.5411903-1.519864 3.9921301-1.788238 1.668385-.308597 3.3820293.100294 5.0177863.540622 3.900453 1.050036 7.740313 2.294051 11.503745 3.726917 1.981529.754438 3.948882 1.563468 6.010635 2.085328 4.459823 1.117077 9.177535.855377 13.470687-.747243 1.505699-.566162 3.141769-1.567004 3.228026-3.112501.04918-.881201-.669077-1.657587-1.149111-2.411146-.307836-.483241-.615869-.966765-.951088-1.433043-1.622098-2.256215-3.590574-5.227679-6.447941-5.064911z" fill="#2f2e41"/><path d="m127.57275 102.379813c-9.40694.535861-18.704478-2.083803-28.1235319-2.363814-1.1710066-.0348126-2.3547595-.0322339-3.4981548.212092-1.2095409.258461-2.3371065.779171-3.461884 1.277056-5.0517391 2.236174-10.2778393 4.088388-15.4975716 5.938084l-5.9960385 2.124789c-1.1982203.424609-2.4398163.855783-3.7152466.781624-.5717117-.033242-1.2735467-.115551-1.5952017.337825-.9754552 1.374921-.5145049 3.394936.1299995 4.938003.2092008.500864.5630434 1.04125 1.1236944 1.098231.3946968.040114.7617098-.177262 1.1452487-.27499 1.0914343-.278095 2.1795469.420373 3.3027589.534076 1.3876919.14048 2.6762626-.611576 3.9860237-1.072141 2.1722903-.763863 4.5475229-.739863 6.8308097-1.101639 3.8286196-.606627 7.377154-2.29798 10.6942248-4.224981 1.2631433-.733805 2.5411903-1.519864 3.9921301-1.788238 1.668385-.308597 3.3820293.100294 5.0177863.540622 3.900453 1.050036 7.740313 2.294051 11.503745 3.726917 1.981529.754438 3.948882 1.563468 6.010635 2.085328 4.459823 1.117077 9.177535.855377 13.470687-.747243 1.505699-.566162 3.141769-1.567004 3.228026-3.112501.04918-.881201-.669077-1.657587-1.149111-2.411146-.307836-.483241-.615869-.966765-.951088-1.433043-1.622098-2.256215-3.590574-5.227679-6.447941-5.064911z" fill="#000" opacity=".1"/><path d="m80.1232877 112.691474c1.4240704.47443 2.8605856.910606 4.3095458 1.308526.8111228-1.299989 2.3284795-2.204609 2.6743137-3.690748.0214368-.064676.0215223-.134291.0002444-.199017-.0369936-.063585-.0942744-.113615-.163108-.142461-1.0378918-.56135-2.1903977-.891023-3.3745089-.965273-.935095-.057694-1.3618271.895385-1.7857773 1.565243-.1716262.271175-1.279675 2.250673-1.6607097 2.12373z" fill="#fbbebe"/><path d="m82.8960997 111.247646c-.8831839-.182237-1.747488-.649543-2.1983844-1.423026-.2112466-.362383-.4359536-.850876-.8577201-.82352-.3915025.025395-.5713834.485208-.6595248.863645-.3300756 1.41717-.6542688 2.845637-1.2333828 4.182246-.579114 1.336608-1.4358651 2.591474-2.6441717 3.418873-.5541366.379455-1.1720186.662901-1.7136943 1.059594-.4867268.356451-.9110594.803485-1.4486454 1.079185-.3597983.162278-.7310972.29861-1.1109649.407918-.5589592.191606-1.0930034.447464-1.5910593.762266-.4379457.250508-.8092503.599754-1.0833944 1.01903-.2736409.429688-.307252.966668-.0892684 1.426178.2334579.376549.6194258.636765 1.060452.714947.4354048.07392.879439.084877 1.318059.032524 1.7419287-.126379 3.4817884-.279057 5.2215672-.431727.7360243-.046668 1.4675397-.146809 2.1885721-.299607.3811322-.090509.754532-.210362 1.1341927-.30674.6507738-.165142 1.3177311-.260762 1.9893198-.285204.1950679-.016291.3915261.001373.5803683.052184.4030554.129626.6890728.524386 1.1050682.604495.2668986.025142.5361002-.010274.786926-.103528 1.2534935-.337448 2.5706356-.328342 3.8677907-.397269.5715431-.030372 1.2405266-.137261 1.502742-.640886.3269926-.628041-.2152304-1.330315-.4312899-2.003711-.1077923-.430335-.1678876-.870904-.179233-1.313989-.0996603-1.09494-.4261831-2.158161-.9594207-3.12406-.4434169-.801559-1.0488237-1.687793-.7372242-2.548037.105731-.291897.3159925-.563677.2950957-.873113-.0918453-1.358895-3.3119404-.883423-4.1127754-1.048668z" fill="#2f2e41"/><path d="m113.521457 87.2144202c-1.550719-.7282363-2.793038-2.0433573-3.486785-3.6911159-.146141-.3541122-.266228-.7238818-.406955-1.0813644-.458878-1.1875342-1.172596-2.2438709-2.083863-3.0842169-.227852-.2059866-.49517-.4025977-.773552-.3486994-.267124.0517191-.477318.3333977-.568969.6493478-.078338.3252712-.097933.6634507-.057742.996523.077874.7850991.20455 1.5638248.379192 2.3310438l.424064 2.0594169c.052503.3167524.141151.6254739.263972.9192912.182966.3465814.424284.6542674.711868.907649.387384.3803011.781059.7504228 1.181023 1.1103649.555512.5682036 1.279955.9115099 2.047918.9704883 1.737789.3434651 3.505243.8381898 4.97166 2.0468515-.016273-.013408-.006225-1.381321-.031606-1.5381197-.067085-.4144255-.119361-.824857-.372443-1.1050536-.568529-.6294354-1.505296-.814364-2.197782-1.1424065z" fill="#fbbebe"/><path d="m113.521457 87.2144202c-1.550719-.7282363-2.793038-2.0433573-3.486785-3.6911159-.146141-.3541122-.266228-.7238818-.406955-1.0813644-.458878-1.1875342-1.172596-2.2438709-2.083863-3.0842169-.227852-.2059866-.49517-.4025977-.773552-.3486994-.267124.0517191-.477318.3333977-.568969.6493478-.078338.3252712-.097933.6634507-.057742.996523.077874.7850991.20455 1.5638248.379192 2.3310438l.424064 2.0594169c.052503.3167524.141151.6254739.263972.9192912.182966.3465814.424284.6542674.711868.907649.387384.3803011.781059.7504228 1.181023 1.1103649.555512.5682036 1.279955.9115099 2.047918.9704883 1.737789.3434651 3.505243.8381898 4.97166 2.0468515-.016273-.013408-.006225-1.381321-.031606-1.5381197-.067085-.4144255-.119361-.824857-.372443-1.1050536-.568529-.6294354-1.505296-.814364-2.197782-1.1424065z" fill="#000" opacity=".1"/><circle cx="132.623288" cy="69.5" fill="#2f2e41" r="2.5"/><path d="m131.129105 68.0484418c-.628017-.0691897-1.325563-.1205225-1.828759.2611436-.266993.2345456-.480357.5231445-.625755.846403-.483697.9021819-.960652 1.8214541-1.204101 2.8155547-.206551.8434301-.240815 1.7253927-.496566 2.5552611-.474424 1.5394256-1.689862 2.8387735-1.828773 4.4435-.062162.7180943.05885 1.5588462-.468516 2.0508115-.130243.1088035-.269285.2067677-.415715.2928995-.365717.2433504-.675945.5602449-.910622.9301894-.197442.3116102-.349474.6695746-.646662.8883787-.470471.3463834-1.251556.3111345-1.483489.8469888-.238325.55063.366463 1.1635083.226359 1.7468421-.114117.4751324-.647279.692852-1.014475 1.0156936-.470417.4136084-.685497 1.0376027-.881636 1.6321447-1.566124.2944469-3.183545-.1062323-4.427107-1.0967146.645883 1.580141.659767 3.323996.687832 5.0305379.009112.5536154-.008268 1.17491-.406129 1.5604471 1.84185.0391802 3.638225.5348657 5.43565.9384017.785563.1763651 1.638381.329515 2.370907-.004297.411026-.2186348.778879-.509283 1.085813-.8579238.97778-.9850186 2.003578-2.0595988 2.242803-3.4259977.134042-.7655969.004226-1.5513403.039706-2.3277407.043952-.961995.34007-1.8916377.593571-2.8207479.518721-1.9017524.866426-3.8455048 1.039019-5.8083583.106447-1.2112523 1.159594-2.1861186 1.713983-3.2686095 1.046599-2.04357 2.116155-4.1719503 2.195012-6.4660431.02638-.7671764-.228491-1.6946094-.99235-1.7787648z" fill="#2f2e41"/><path d="m131.129105 68.0484418c-.628017-.0691897-1.325563-.1205225-1.828759.2611436-.266993.2345456-.480357.5231445-.625755.846403-.483697.9021819-.960652 1.8214541-1.204101 2.8155547-.206551.8434301-.240815 1.7253927-.496566 2.5552611-.474424 1.5394256-1.689862 2.8387735-1.828773 4.4435-.062162.7180943.05885 1.5588462-.468516 2.0508115-.130243.1088035-.269285.2067677-.415715.2928995-.365717.2433504-.675945.5602449-.910622.9301894-.197442.3116102-.349474.6695746-.646662.8883787-.470471.3463834-1.251556.3111345-1.483489.8469888-.238325.55063.366463 1.1635083.226359 1.7468421-.114117.4751324-.647279.692852-1.014475 1.0156936-.470417.4136084-.685497 1.0376027-.881636 1.6321447-1.566124.2944469-3.183545-.1062323-4.427107-1.0967146.645883 1.580141.659767 3.323996.687832 5.0305379.009112.5536154-.008268 1.17491-.406129 1.5604471 1.84185.0391802 3.638225.5348657 5.43565.9384017.785563.1763651 1.638381.329515 2.370907-.004297.411026-.2186348.778879-.509283 1.085813-.8579238.97778-.9850186 2.003578-2.0595988 2.242803-3.4259977.134042-.7655969.004226-1.5513403.039706-2.3277407.043952-.961995.34007-1.8916377.593571-2.8207479.518721-1.9017524.866426-3.8455048 1.039019-5.8083583.106447-1.2112523 1.159594-2.1861186 1.713983-3.2686095 1.046599-2.04357 2.116155-4.1719503 2.195012-6.4660431.02638-.7671764-.228491-1.6946094-.99235-1.7787648z" fill="#000" opacity=".1"/><path d="m129.509945 104.470027c-1.974716-.937322-3.419572-2.685174-5.01623-4.180963-3.048077-2.855516-6.775563-4.8769885-9.980374-7.5542362-2.124356-1.7746527-4.024247-3.8410935-6.358615-5.3266979-2.056004-1.3061288-4.386582-2.1208698-6.810052-2.3807085-.277661-.0474091-.562381-.0332139-.833922.0415764-.3062.135045-.5729564.3455467-.7751994.611722-1.0341803 1.1642962-1.9533905 2.4253968-2.7448627 3.7657851-4.0621614 6.8798514-9.8320839 12.6645581-14.6125418 19.0630021-.3165047.311932-.3413015.813563-.0570969 1.155053l.9724287 1.90113c.5441331 1.063794 1.4159009 2.30297 2.5889943 2.091564.5360586-.096604.9632287-.490118 1.3579599-.866572l4.3654513-4.163325 4.5768939-4.364988c2.681684-2.557522 5.4092437-5.174468 7.1573967-8.4459702 1.366295 2.3641508 3.790269 3.9114659 5.453444 6.0757342.632604.8232 1.149329 1.728462 1.714065 2.599921.905284 1.396965 1.934701 2.708058 2.962519 4.016919l5.250077 6.685673c.71598.91176 1.451827 1.841749 2.430907 2.460196 1.243429.785421 2.755678.992359 4.219271 1.123124 1.97223.176186 3.952456.247603 5.932289.213948 1.509435-.025678 3.06619-.124523 4.420647-.793356 1.354456-.668832 2.467139-2.041784 2.396724-3.554603-.036618-.786724-.379414-1.524589-.756731-2.215246-1.875421-3.432833-4.326194-6.284433-7.853443-7.958682z" fill="#2f2e41"/><circle cx="133.623288" cy="71.5" fill="#2f2e41" r="1.5"/><path d="m133.604996 69.7430618c.44152.7859923.44184 1.7642686.198851 2.6345405-.242989.870272-.706982 1.6574833-1.165958 2.4331347-.451725.7634004-.908623 1.5337484-1.514601 2.1780941 2.796088.1348896 5.506824-.9706284 7.974408-2.3101643 1.985151-1.0776448 3.966109-2.4079672 5.025592-4.4219914-.619615.1876261-1.30247.0024528-1.850892-.3448398-.532636-.3742081-1.010103-.8224479-1.418223-1.3314095l-1.403804-1.591735c-.329701-.3466412-.619339-.7298495-.863365-1.1422803-.3039-.5642816-.432993-1.2074352-.370609-1.8464108-.557693.5883422-1.181016 1.1097054-1.857548 1.5537006-1.00265.6577387-2.107905 1.1348816-3.112657 1.788745-.356387.2319244-1.148584.604874-.944661 1.0742149.198864.4577041 1.020946.823464 1.303467 1.3264013z" fill="#fbbebe"/><path d="m133.604996 69.7430618c.44152.7859923.44184 1.7642686.198851 2.6345405-.242989.870272-.706982 1.6574833-1.165958 2.4331347-.451725.7634004-.908623 1.5337484-1.514601 2.1780941 2.796088.1348896 5.506824-.9706284 7.974408-2.3101643 1.985151-1.0776448 3.966109-2.4079672 5.025592-4.4219914-.619615.1876261-1.30247.0024528-1.850892-.3448398-.532636-.3742081-1.010103-.8224479-1.418223-1.3314095l-1.403804-1.591735c-.329701-.3466412-.619339-.7298495-.863365-1.1422803-.3039-.5642816-.432993-1.2074352-.370609-1.8464108-.557693.5883422-1.181016 1.1097054-1.857548 1.5537006-1.00265.6577387-2.107905 1.1348816-3.112657 1.788745-.356387.2319244-1.148584.604874-.944661 1.0742149.198864.4577041 1.020946.823464 1.303467 1.3264013z" fill="#000" opacity=".1"/><path d="m133.81864 70.316505c-.509351.8557952-.618574 1.8662366 0 2.6460093.076969.097024.363015.6993066.486386.7048828.11955-.0098831.230525-.0659735.309324-.1563424.658163-.6011817 1.140399-1.3678928 1.718648-2.0469674.57825-.6790747 1.307635-1.2979715 2.186687-1.4347583 1.060994-.1650977 2.08544.3966277 3.01376.9385175.385832.225221.785936.4637891 1.028886.8398238.195518.3530639.310865.7447961.337854 1.1473973.32068 2.4140196.313606 4.8583844.305985 7.2937878-.005511 1.7604361-.012164 3.5332769-.345423 5.2615906-.172249.893307-.431022 1.7701072-.553366 2.67168-.089875.7957131-.126308 1.5965471-.109055 2.3971253l-.002582 3.3516195c-.022399.6155109.021215 1.231649.130096 1.8378834.159341.7344407.507107 1.4124304.739639 2.1268911.239699.8212375.403732 1.662655.49005 2.5137417l.459117 3.470644c.144588 1.092998.251422 2.288713-.410064 3.168555-.299075.397797-.692045.716227-.995305 1.110813-1.135564 1.477544-.771175 3.585741-1.244984 5.390741-.373822 1.321907-1.142068 2.498556-2.202314 3.37307-.811449.688827-1.859565 1.230838-2.904248 1.037046-1.410463-.261655-2.257645-1.731021-2.642145-3.119239-.384499-1.388218-.524705-2.899321-1.357901-4.072217-.680273-.957624-1.734332-1.559989-2.687389-2.243625-.953057-.683637-1.884324-1.564904-2.091805-2.722788-.090619-.505723-.034218-1.026578-.087965-1.537587-.154457-1.318746-1.015704-2.448687-2.247029-2.948068-.721987-.280552-1.613687-.380754-2.020209-1.042583 1.049777-.5910407 1.746621-1.6833749 2.113732-2.834714.367111-1.151339.441957-2.3729816.514128-3.579766l.241193-4.032982c.10779-1.8023406.15665-3.5886218.951086-5.2082429.355142-.7240245.797042-1.4018082 1.166708-2.1184634.489028-1.0055232.906627-2.0441838 1.249704-3.1082854.575902-1.6525132 1.151958-3.305502 1.665311-4.9786909.244613-.7972799.479664-1.609795.915666-2.3198542s1.061523-1.6233357 1.877824-1.7766452z" fill="#334750"/><path d="m124.239632 95.9618413 1.101325.0381587.234663-1.5989384c.030844-.3198668.109412-.6338146.233293-.9322099.181601-.315479.39365-.6138847.633355-.8912872 1.084448-1.4711025 1.005415-3.4244331 1.274034-5.2114286.358266-2.3834064 1.395033-4.6147664 2.420659-6.8101121l2.138642-4.5777794c.4266-.777131.630685-1.6490983.591396-2.5267847.018937-.7076896.237294-3.2825931.256289-3.9902862.006948-.2618758-.60133-.1163724-.724527-.3497702-.268271-.5082335-.635173.8700749-1.136101 1.1724737-.500929.3023988-.777386.8501705-.990076 1.3823612-.460868 1.1531752-.742682 2.3659117-1.172104 3.5303478s-1.030274 2.308444-1.996542 3.119195c-.439076.3684104-.944993.6606012-1.359714 1.054439-1.330581 1.2635582-1.460176 3.2589222-1.506982 5.0603759-.027822 1.0709401-.243329 11.5312454.00239 11.5312454z" fill="#2f2e41"/><path d="m140.064178 68.1230847c-1.057671.4063981-1.637638 1.5273321-1.934889 2.6043645-.297252 1.0770325-.418315 2.2249333-.986424 3.1912144-1.328005 2.2587482-4.714004 2.9169951-5.650931 5.3577336-.306579.7986506-.293332 1.6748929-.375897 2.5246073-.169939 1.7489051-.758356 3.4385284-.932296 5.1870541-.134749 1.3545731-.018414 2.7197562.09794 4.0759749l1.183398 13.7934765c.170937 1.992394.16655 4.132663-.354479 6.065462 1.198161.228398 2.443911-.077291 3.555477-.572567s2.126125-1.175189 3.196156-1.752067c1.839797-.991874 3.868712-1.694666 5.479857-3.015921.291602-.221958.541442-.491828.738331-.797525.322797-.545366.349287-1.205094.50288-1.817678.139347-.488697.316674-.966282.530435-1.428592.589699-1.390021 1.103557-2.8096237 1.53941-4.252828.299406-.9577207.535873-1.9331622.707955-2.9203602.12914-.786221.198894-1.5805317.26854-2.3739835.085814-1.2422547.338397-2.4680905.751256-3.6459892 1.029314-2.8089861 1.612171-5.7555047 1.728285-8.7370065.034905-.4306755.004944-.8640258-.088926-1.2861987-.140236-.5235829-.456457-.9812679-.715904-1.458905-.491744-.9052939-.787063-1.9015908-1.251198-2.8208599-1.048816-2.0772742-2.900925-3.6522242-4.841132-4.9722289-.952842-.6482446-2.068493-1.3619041-3.147844-.9471774z" fill="#2f2e41"/><path d="m116.213615 89.8255789c-.769175-.4870691-1.538124-1.0115814-2.117042-1.7490546-.27736-.3533246-.506294-.7498668-.78827-1.098797-.685906-.8487766-1.657866-1.3750969-2.662739-1.6502146-1.004873-.2751178-2.049874-.3168928-3.085735-.3263587-.692961-.0063344-1.402996.0044274-2.051753.2707804-.648756.2663531-1.233809.840658-1.35921 1.5858496-.150882.8966125.387843 1.7703194 1.034756 2.345498.601743.5341536 1.309966.9079873 2.068162 1.0916751.618527.1178046 1.242706.1973269 1.869524.2381831 3.680571.4190826 6.963988 2.597376 10.189287 4.5808894 2.832624 1.742022 5.72032 3.3706788 8.663086 4.8859704.116733-.9583559.165277-1.9250786.1452-2.8915576-.015024-.7217867-.047709-1.8220779-.674717-2.2458503-.730544-.4937487-1.933236-.6071959-2.757349-.9009187-1.896369-.6759937-3.748515-1.4906973-5.543756-2.4385322-.995425-.5255683-1.971906-1.0914224-2.929444-1.6975623z" fill="#fbbebe"/><circle cx="132.123288" cy="62" fill="#fbbebe" r="7"/><path d="m142.310768 74.8976821c-.622982.731544-.934845 1.6737306-1.353429 2.5417437-.861318 1.7860894-2.212078 3.3190783-2.888563 5.1849664-.713675 1.9684609-.689758 4.3098869-2.088701 5.8559833-.243243.2688299-.536838.5282807-.607183.8858599-.041754.2122391.001585.4394193-.071064.6429412-.200504.5616887-1.113468.5900103-1.283919 1.1617923-.049876.1673094-.021785.3526374-.083548.5158296-.139954.3698043-.624909.4262865-.949128.6477727-.676998.4624809-.540483 1.537833-1.023635 2.204523-.382249.5274579-1.102858.7042043-1.742895.6147552-.640036-.089449-1.226246-.3979812-1.809127-.6802386-.200248-.1135688-.421891-.1836568-.650662-.2057532-.270277.0093053-.531725.0992129-.751203.2583261-1.288451.8249585-1.89326 2.459023-1.884423 4.0026096.009032 1.5435867.535693 3.0308217 1.075084 4.4745727.073554.243672.194366.470234.355444.666574.427186.454901 1.171139.381406 1.73846.12835.567321-.253055 1.082648-.651211 1.692751-.7625 1.079296-.196873 2.134101.549986 3.22909.48851.802193-.045038 1.512093-.51477 2.178558-.969105 1.063836-.725224 2.147194-1.468717 2.929336-2.497859.478943-.6301937.829774-1.3485742 1.247345-2.022043.53685-.8264211 1.125199-1.6177265 1.761508-2.3691526l4.021884-4.9577193c.96644-1.0594555 1.631848-2.3613731 1.926379-3.7690954.382359-1.3213012.767322-2.6577369.833509-4.0329636.054478-1.1319735-.108689-2.2623034-.292074-3.3803015-.180516-1.1005093-.386006-2.21328-.866073-3.2173842-.873763-1.8275546-3.001107-3.3398561-4.643721-1.4109943z" fill="#2f2e41"/><circle cx="144.623288" cy="46.5" fill="#2f2e41" r="8.5"/><path d="m152.300092 53.0029071c-2.240949 1.624398-5.127771 2.0591309-7.745573 1.1664229-2.617802-.8927079-4.642055-3.0021874-5.431231-5.6599016.40126 3.2003301 2.562586 5.9025525 5.590563 6.9896629s6.408203.3744275 8.743411-1.8434505 3.228686-5.5641719 2.311102-8.6556408c.389331 3.1028938-.940566 6.1715801-3.468272 8.0029071z" fill="#2f2e41"/><circle cx="137.623288" cy="59.5" fill="#2f2e41" r="6.5"/><ellipse cx="131.623288" cy="57.5" fill="#2f2e41" rx="5.5" ry="4.5"/><ellipse cx="133.329059" cy="64.119093" fill="#fbbebe" rx="1" ry="1.326602" transform="matrix(.77585319 -.63091348 .63091348 .77585319 -10.568317 98.491191)"/><path d="m126.123288 119.901727c0 3.037696-1.790705 4.098273-4 4.098273-.051176 0-.102347-.000745-.153152-.001859-.102349-.002227-.203959-.00705-.304098-.014103-1.993923-.142179-3.54275-1.257333-3.54275-4.082311 0-2.922989 3.704371-6.611804 3.983431-6.885393l.000368-.000372c.010678-.010765.016201-.015962.016201-.015962s4 3.864403 4 6.901727z" fill="#334750"/><path d="m122.561534 123.537016 1.308814-2.061372-1.312109 2.287849-.003292.236507c-.09156-.002228-.182459-.007051-.27204-.014105l.140965-3.039329-.000987-.02376.002305-.004086.013503-.287373-1.315405-2.293407 1.319352 2.078074.003294.06089.106379-2.296389-1.12603-2.3699 1.139862 1.96706.110988-4.761339.00033-.016336v.015965l-.018443 3.754417 1.12109-1.488475-1.1257 1.811859-.02964 2.056168 1.046986-1.973373-1.051268 2.275967-.016467 1.143183 1.519267-2.746751-1.525202 3.145509z" fill="#3f3d56"/></g></svg>