<svg height="20" viewBox="0 0 20 20" width="20" xmlns="http://www.w3.org/2000/svg"><path d="m10 0c1.8181909 0 3.5055019.45454091 5.0619835 1.36363636 1.5013849.88154711 2.692833 2.07988224 3.5743801 3.59504133.9090955 1.55648161 1.3636364 3.23690557 1.3636364 5.04132231 0 1.8044167-.4545409 3.4848407-1.3636364 5.0413223-.8815471 1.5151591-2.0798822 2.7134942-3.5950413 3.5950413-1.5564816.9090955-3.2369056 1.3636364-5.0413223 1.3636364-1.80441674 0-3.4848407-.4545409-5.04132231-1.3636364-1.51515909-.8815471-2.71349422-2.0729952-3.59504133-3.5743801-.90909545-1.5564816-1.36363636-3.2437926-1.36363636-5.0619835 0-1.81819091.45454091-3.50550186 1.36363636-5.06198347.88154711-1.50138492 2.07988224-2.69283306 3.59504133-3.57438017 1.55648161-.90909545 3.23690557-1.36363636 5.04132231-1.36363636zm.0785124 2c-1.4600624 0-2.81679814.36501012-4.07024794 1.09504132-1.22590144.71625703-2.19696611 1.6873217-2.91322314 2.91322314-.7300312 1.2534498-1.09504132 2.61018554-1.09504132 4.07024794s.36501012 2.8167981 1.09504132 4.0702479c.71625703 1.2259015 1.6873217 2.1969661 2.91322314 2.9132232 1.2534498.7300312 2.61018554 1.0950413 4.07024794 1.0950413s2.8167981-.3650101 4.0702479-1.0950413c1.2259015-.7162571 2.1969661-1.6873217 2.9132232-2.9132232.7300312-1.2534498 1.0950413-2.6101855 1.0950413-4.0702479s-.3650101-2.81679814-1.0950413-4.07024794c-.7162571-1.22590144-1.6873217-2.19696611-2.9132232-2.91322314-1.2534498-.7300312-2.6101855-1.09504132-4.0702479-1.09504132zm.0014876 15.16c3.910176 0 7.08-3.169824 7.08-7.08h-14.16c0 3.910176 3.16982397 7.08 7.08 7.08z" fill="#334750" fill-rule="evenodd"/></svg>