<svg height="20" viewBox="0 0 20 20" width="20" xmlns="http://www.w3.org/2000/svg"><path d="m10 0c1.8181909 0 3.5055019.45454091 5.0619835 1.36363636 1.5013849.88154711 2.692833 2.07299525 3.5743801 3.57438017.9090955 1.55648161 1.3636364 3.24379256 1.3636364 5.06198347 0 1.8181909-.4545409 3.5055019-1.3636364 5.0619835-.8815471 1.5013849-2.0729952 2.692833-3.5743801 3.5743801-1.5564816.9090955-3.2437926 1.3636364-5.0619835 1.3636364-1.81819091 0-3.50550186-.4545409-5.06198347-1.3636364-1.50138492-.8815471-2.69283306-2.0729952-3.57438017-3.5743801-.90909545-1.5564816-1.36363636-3.2437926-1.36363636-5.0619835 0-1.81819091.45454091-3.50550186 1.36363636-5.06198347.88154711-1.50138492 2.07299525-2.69283306 3.57438017-3.57438017 1.55648161-.90909545 3.24379256-1.36363636 5.06198347-1.36363636zm0 18c1.4458725 0 2.7894226-.3614627 4.0306905-1.084399 1.2139874-.7092959 2.1756146-1.6709231 2.8849105-2.8849105.7229363-1.2412679 1.084399-2.584818 1.084399-4.0306905 0-1.44587253-.3614627-2.78942261-1.084399-4.03069054-.7092959-1.21398731-1.6709231-2.17561452-2.8849105-2.88491048-1.2412679-.72293627-2.584818-1.08439898-4.0306905-1.08439898-1.44587253 0-2.78942261.36146271-4.03069054 1.08439898-1.21398731.70929596-2.17561452 1.67092317-2.88491048 2.88491048-.72293627 1.24126793-1.08439898 2.58481801-1.08439898 4.03069054 0 1.4458725.36146271 2.7894226 1.08439898 4.0306905.70929596 1.2139874 1.67092317 2.1756146 2.88491048 2.8849105 1.24126793.7229363 2.58481801 1.084399 4.03069054 1.084399z" fill="#dfe3e8" fill-rule="evenodd"/></svg>