<svg fill="none" height="36" viewBox="0 0 36 36" width="36" xmlns="http://www.w3.org/2000/svg"><path clip-rule="evenodd" d="m34.2 24.6835c0 .9627-.3333 1.7773-.9998 2.4438l-6.0727 6.0727c-.3209.3209-.6973.574-1.1293.7591-.432.1852-.8826.2777-1.3516.2777h-19.36593c-.96274 0-1.78354-.3394-2.4624-1.0183-.67886-.6788-1.01828-1.4996-1.01828-2.4624v-25.47561c0-.96275.33942-1.78354 1.01828-2.4624s1.49966-1.01829 2.4624-1.01829h25.43863c.9628 0 1.7835.33943 2.4624 1.01829s1.0183 1.49965 1.0183 2.4624zm-9.2572 5.7764 5.5173-5.5172h-5.5173zm5.7765-25.17941h-25.43863v25.47561h16.18153v-7.5168c0-.4937.1728-.9071.5184-1.2404s.7529-.4999 1.2219-.4999h7.5168z" fill="#bcc2c5" fill-rule="evenodd"/></svg>