<svg height="14" viewBox="0 0 15 14" width="15" xmlns="http://www.w3.org/2000/svg"><path d="m12.496 0c.4160021 0 .7706652.14649777 1.064.43949772.2933348.29299994.44.64725819.44 1.06278539v10.99543379c0 .4155272-.1466652.7697854-.44 1.0627854-.2933348.2929999-.6479979.4394977-1.064.4394977h-10.992c-.41600208 0-.7706652-.1464978-1.064-.4394977-.2933348-.293-.44-.6472582-.44-1.0627854v-10.99543379c0-.4155272.1466652-.76978545.44-1.06278539.2933348-.29299995.64799792-.43949772 1.064-.43949772zm-.176 12.4977169c.0533336 0 .0959998-.0186452.128-.0559361s.048-.082572.048-.1358447v-10.61187217c0-.05327272-.0159998-.09855385-.048-.13584475s-.0746664-.05593607-.128-.05593607h-10.624c-.0533336 0-.09866648.01864517-.136.05593607s-.056.08257203-.056.13584475v10.61187217c0 .0532727.01866648.0985538.056.1358447s.0826664.0559361.136.0559361zm-1.696-9.49315069c.1066672 0 .197333.03462675.272.10388128s.112.15715319.112.26369863l-.016 4.25114155c0 .10654544-.0346663.1944441-.104.26369863s-.1573328.10388128-.264.10388128h-.864c-.1066672 0-.19733296-.03462675-.272-.10388128s-.112-.15715319-.112-.26369863l.064-1.82191781-5.072 5.08219174c-.07466704.0745818-.16266616.1118722-.264.1118722s-.19466624-.0372904-.28-.1118722l-.72-.719178c-.07466704-.0745818-.112-.1624805-.112-.26369867 0-.10121816.03733296-.18911682.112-.26369863l5.088-5.08219178-1.808.06392694c-.1066672.01065454-.19733296-.02130861-.272-.09589041s-.112-.16514406-.112-.2716895v-.8630137c0-.10654543.03733296-.19710769.112-.27168949.07466704-.07458181.15999952-.11187215.256-.11187215z" fill="#387cb8" fill-rule="evenodd" transform="translate(.2)"/></svg>