<svg height="204" viewBox="0 0 182 204" width="182" xmlns="http://www.w3.org/2000/svg" xmlns:xlink="http://www.w3.org/1999/xlink"><linearGradient id="a"><stop offset="0" stop-color="#808080" stop-opacity=".25"/><stop offset=".54" stop-color="#808080" stop-opacity=".12"/><stop offset="1" stop-color="#808080" stop-opacity=".1"/></linearGradient><linearGradient id="b" x1="49.994729%" x2="49.994729%" xlink:href="#a" y1="100.002696%" y2="-.006739%"/><linearGradient id="c" x1="50.001148%" x2="50.001148%" xlink:href="#a" y1="100.009238%" y2="0%"/><linearGradient id="d" x1="-.053452%" x2="99.976703%" xlink:href="#a" y1="49.996893%" y2="49.996893%"/><g fill="none"><g opacity=".2" transform="translate(128.547486 105)"><g fill="#3f3d56"><path d="m6.42125628 79.9544118c-.16293005.3017938-.3509015.5895559-.5619598.8602941-1.86609715-1.3041177-3.7641541-2.5844118-5.69417085-3.8408824l.12517588-.2461764c.44658684-.8573561 1.1149129-1.5809918 1.93623115-2.0964706 1.06532664-.6511765 2.26648242-.7941177 3.25457287-.2647059s1.53939698 1.5882353 1.59798995 2.8244118c.03014639.962755-.19683069 1.9162674-.6578392 2.7635294z"/><ellipse cx="5.956189" cy="73.494612" rx="4.519317" ry="3.46302" transform="matrix(.46808405 -.88368395 .88368395 .46808405 -61.777817 44.356345)"/><ellipse cx="8.554307" cy="68.620491" rx="4.519317" ry="3.46302" transform="matrix(.46808405 -.88368395 .88368395 .46808405 -56.088654 44.059637)"/><ellipse cx="11.152425" cy="63.74637" rx="4.519317" ry="3.46302" transform="matrix(.46808405 -.88368395 .88368395 .46808405 -50.399491 43.76293)"/><ellipse cx="13.74788" cy="58.874896" rx="4.519317" ry="3.46302" transform="matrix(.46808405 -.88368395 .88368395 .46808405 -44.714084 43.465277)"/></g><path d="m20.0414573 19.4691176c-.1420538-.749945-.231049-1.5088632-.2663317-2.2711764l8.7676382 2.9329412-8.7436683-4.5211765c.2564572-4.5404453 2.383546-8.77535627 5.880603-11.70794119l8.47201 12.17647059-6.5783919-13.54235295c5.2695116-3.27790352 11.9395008-3.35713483 17.2863305-.20534046 5.3468296 3.15179438 8.4755164 9.00704881 8.1084858 15.17481671-.3670305 6.1677678-4.1683426 11.6156523-9.8517007 14.1190532.2167867 1.1685106.3060808 2.3568593.2663316 3.5444117l-13.3165829-.1058823 13.1248241 2.1494117c-.9013765 5.5030724-4.5364659 10.1822204-9.6651759 12.4411765 1.5455783 8.4725702-3.7200036 16.7029804-12.0953249 18.9056949-8.3753212 2.2027146-17.04750615-2.3620546-19.92047516-10.4855202-2.87296901-8.1234657 1.01817275-17.0773385 8.93816196-20.5675276-1.36595002-7.497643 2.6063829-14.9508828 9.6145728-18.0397059z" fill="#334750"/><path d="m41.4518593 42.2894118c-1.7393002 3.274677-4.539448 5.8702674-7.9473367 7.3667647 1.5455783 8.4725702-3.7200037 16.7029804-12.0953249 18.9056949-8.3753213 2.2027145-17.04750618-2.3620546-19.92047519-10.4855203-2.87296902-8.1234656 1.01817274-17.0773385 8.93816189-20.5675276-.64452259-3.5179411 31.8985427 3.1420589 31.0249749 4.7805883z" fill="#000" opacity=".1"/></g><g opacity=".2" transform="translate(.547486 1)"><g fill="#3f3d56"><path d="m57.2154341 164.075669c.1562659.638173.3670995 1.261658.6301608 1.863535 4.0622079-1.559554 8.1709967-3.057431 12.3263665-4.493631-.0369132-.169172-.0738264-.34363-.1160128-.528662-.4218348-1.807696-1.3164608-3.47008-2.5918328-4.816115-1.6584566-1.712866-3.8099679-2.548153-5.8797428-2.040637s-3.5937621 2.238886-4.2819293 4.517421c-.5178668 1.792077-.5479093 3.690444-.0870096 5.498089z"/><ellipse cx="61.136669" cy="152.188463" rx="6.611037" ry="8.671479" transform="matrix(.97146639 -.23717727 .23717727 .97146639 -34.351194 18.842714)"/><ellipse cx="58.626192" cy="141.889461" rx="6.611037" ry="8.671479" transform="matrix(.97146639 -.23717727 .23717727 .97146639 -31.980137 17.953419)"/><ellipse cx="56.118977" cy="131.590384" rx="6.611037" ry="8.671479" transform="matrix(.97146639 -.23717727 .23717727 .97146639 -29.60897 17.064894)"/><ellipse cx="53.611762" cy="121.29395" rx="6.611037" ry="8.671479" transform="matrix(.97146639 -.23717727 .23717727 .97146639 -27.23843 16.176446)"/></g><path d="m60.4796141 44.9495223c.6058415-1.3334397 1.1177278-2.7078041 1.5318972-4.1129936l-17.5469454 1.3507324 18.2878457-4.3376751c1.6601509-8.5845875-.2785773-17.4757284-5.3603216-24.5828026l-21.388553 18.7305096 18.5251447-22.15888536c-8.1976417-8.56619332-20.4783826-11.82999613-31.8323154-8.45994564s-19.88278712 12.8105136-22.10723132 24.4701686c-2.2244442 11.6596549 2.2274278 23.5891174 11.53948242 30.9217834-.9445682 2.07655-1.6615422 4.2497415-2.13832801 6.4814013l24.67646301 6.0478981-25.25916398-2.1463695c-.93269712 10.6912939 3.58399798 21.1315711 12.00733118 27.7547771-6.8400151 15.06667-.9805886 32.873423 13.4592088 40.902436 14.4397973 8.029012 32.6099806 3.583528 41.7372395-10.211357 9.1272589-13.794886 6.1459641-32.3057979-6.8480882-42.5199006 6.0541578-13.3346993 2.2178688-29.0910667-9.2836656-38.1297771z" fill="#334750"/><path d="m10.1933119 77.4464013c1.6734639 6.9165261 5.6275922 13.0638778 11.2216077 17.4458598-6.8400151 15.0666699-.9805886 32.8734239 13.4592088 40.9024359 14.4397973 8.029012 32.6099806 3.583528 41.7372395-10.211357s6.1459641-32.3057977-6.8480882-42.5199005c2.8449518-6.2487898-60.41369771-9.0771338-59.5699678-5.6170382z" fill="#000" opacity=".1"/></g><path d="m149.783544 44.6788246h-.593585v-31.9331715c0-7.04197336-5.810747-12.7456531-12.979022-12.7456531h-72.7022186c-7.1682743 0-12.9790217 5.70899043-12.9790217 12.7456531v13.2368917h-.0452509-.1277673c-.4179472-.0029489-.7595525.3318888-.7639416.7488071v6.3728266c.0043891.4169183.3459944.751756.7639416.7488071h.1410764.0452508v6.5082491h-.2342399c-.2004935-.0014135-.3933377.0766856-.5361064.2171152-.1427687.1404297-.2237664.3316859-.2251734.5316919v12.1853754c.0029304.4169165.3433393.7529356.7612798.7514624h.2342399v4.7796199h-.2022981c-.2009525-.0021226-.3944819.0756625-.5378279.2161687-.1433461.1405063-.2247097.3321682-.2261137.5326384v12.3048659c.001404.2004703.0827676.3921322.2261137.5326384.143346.1405063.3368754.2182913.5378279.2161687h.2022981v111.6253674c0 7.041973 5.8107475 12.745653 12.9790218 12.745653h72.6862485c7.168274 0 12.979021-5.70899 12.979021-12.745653v-115.693355h.596247c.417948.0029489.759553-.3318888.763942-.7488071v-22.3845531c-.004389-.4169184-.345994-.7517561-.763942-.7488072z" fill="url(#b)"/><g opacity=".9"><g fill="#e5e7eb"><rect height="23.628786" rx="1.426297" width="2.852595" x="146.681648" y="45.23015"/><rect height="7.778718" rx=".801216" width="1.602432" x="51.825594" y="26.719782"/><rect height="13.538267" rx=".903189" width="1.806378" x="51.767324" y="40.960368"/><rect height="13.655321" rx=".859486" width="1.718973" x="51.796459" y="59.23663"/></g><rect fill="#fff" height="194.922851" rx="38.99" width="95.489081" x="52.731432" y="1.013302"/><rect fill="#e5e7eb" height="2.718827" rx="1.359413" width="13.335946" x="91.266621" y="6.834038"/><ellipse cx="108.151756" cy="8.193452" fill="#e5e7eb" rx="1.536216" ry="1.542974"/></g><path d="m133.936739 7h-10.970854v1.32461773c-.001467 3.44903147-2.807451 6.24424827-6.268299 6.24424797h-34.9780692c-3.4608484.0000003-6.2668319-2.7952165-6.2682996-6.24424797v-1.32461773h-10.292984c-4.2032996 0-7.6107472 3.3958132-7.6107472 7.5847611v168.8304779c0 4.188948 3.4074476 7.584761 7.6107472 7.584761h68.7785058c4.203299 0 7.610747-3.395813 7.610747-7.584761v-168.8304779c0-4.1889479-3.407448-7.5847611-7.610747-7.5847611z" fill="#ececf3"/><ellipse cx="23.547486" cy="200.5" fill="#334750" rx="15" ry="2.5"/><path d="m30.0096899 195.736202c.6694044-.581901 1.2978249-1.276098 1.4890833-2.100457.1912585-.82436-.1857938-1.835029-1.0409922-2.13874-.956292-.341995-1.9781584.275637-2.7513888.900925-.7732305.625288-1.6639482 1.339903-2.6776178 1.207188 1.065279-.900057 1.5439388-2.257887 1.2595733-3.573074-.0437091-.266091-.1646684-.5159-.3497297-.722271-.530059-.530857-1.4918156-.303712-2.1284329.114848-2.0191424 1.327142-2.5847208 3.892099-2.5956499 6.201837-.2049197-.834568-.0327871-1.702315-.0382517-2.552196-.0054645-.849882-.2541004-1.801851-1.0245986-2.261246-.4815918-.240565-1.0224767-.358513-1.568319-.341994-.9071113-.030627-1.9125841.053596-2.5382723.673779-.7732305.765659-.571043 2.064727.0983614 2.914608.6694045.849882 1.6912709 1.380738 2.6311693 1.967743.7131207.446635 1.4371704.967283 1.8770647 1.674241.0578522.094545.1045731.194664.1393455.298607h5.6913038c1.2792594-.603247 2.4657085-1.364691 3.5273516-2.263798z" fill="#334750"/><g fill="#334750" opacity=".4" transform="translate(156.547486 180)"><ellipse cx="8.505152" cy="6.493333" rx="8.407273" ry="1.472"/><path d="m11.9798485 4.08533333c.3833646-.32364253.6634559-.75953728.8036363-1.25066666.1030304-.49866667-.1030303-1.096-.5615151-1.27733334-.5151515-.20266666-1.0637879.16533334-1.4810606.53333334s-.89378789.8-1.43984849.72c.57455222-.53689311.83218219-1.34821735.67742424-2.13333334-.02328627-.15830878-.08835555-.30688275-.1880303-.42933333-.2859091-.31733333-.80363637-.18133333-1.14363637.06666667-1.0869697.8-1.39090909 2.32266666-1.39863636 3.69866666-.10818182-.496-.01545455-1.01333333-.0180303-1.52266666-.00257576-.50933334-.13909091-1.06666667-.55378788-1.34933334-.25885719-.14251262-.54924094-.21238442-.84227273-.20266666-.48939394-.01866667-1.03030303.032-1.36772727.4-.41469697.46133333-.30651516 1.232.05409091 1.73866666.36060606.50666667.90924242.824 1.41666666 1.17333334.40403589.25054478.74898245.59126751 1.00969697.99733333.03103876.05659807.05608294.11650092.07469697.17866667h3.06515155c.6867075-.35648776 1.3235668-.80770734 1.8931818-1.34133334z"/></g><g fill="#334750" opacity=".4" transform="translate(24.547486 163)"><ellipse cx="8.525758" cy="6.485333" rx="8.407273" ry="1.472"/><path d="m12.0030303 4.07733333c.3841819-.32347115.6636879-.76078399.8010606-1.25333333.1030303-.496-.1004545-1.09333333-.5615151-1.27466667-.5151516-.20266666-1.0637879.16533334-1.4784849.53333334s-.89636363.8-1.43984848.72c.57231053-.53840122.82951348-1.34838053.67742428-2.13333334-.02434048-.15878431-.08926064-.30793852-.18803034-.432-.28590909-.31466666-.80363636-.17866666-1.14621212.06933334-1.08696969.8-1.39090909 2.32-1.3960606 3.696-.11075758-.496-.01803031-1.01333334-.02060606-1.52266667-.00257576-.50933333-.13651516-1.06666667-.55121213-1.33333333-.25911511-.14460738-.55064657-.21546166-.84484848-.20533334-.48681818-.01866666-1.03030303.032-1.36515152.40266667-.41469697.46133333-.30651515 1.232.05409091 1.73866667.36060606.50666666.90924243.82133333 1.41409091 1.17333333.40510857.24908347.75034201.59008955 1.00969697.99733333.03085367.05705006.05671437.11684407.07727273.17866667h3.06257573c.6878943-.36122614 1.3255659-.81689222 1.8957576-1.35466667z"/></g><g fill="#d6d8e0"><path d="m64.547486 20h14v14h-14z"/><path d="m87.547486 22h29v2h-29z"/><path d="m87.547486 26h47v2h-47z"/><path d="m87.547486 31h47v2h-47z"/><path d="m64.547486 46h14v14h-14z"/><path d="m87.547486 47h29v2h-29z"/><path d="m87.547486 52h47v2h-47z"/><path d="m87.547486 56h47v2h-47z"/><path d="m64.547486 70h14v14h-14z"/><path d="m87.547486 71h29v2h-29z"/><path d="m87.547486 76h47v2h-47z"/><path d="m87.547486 80h47v2h-47z"/><path d="m64.547486 95h14v14h-14z"/><path d="m87.547486 96h29v2h-29z"/><path d="m87.547486 101h47v2h-47z"/><path d="m87.547486 105h47v2h-47z"/><path d="m64.547486 120h14v14h-14z"/><path d="m87.547486 121h29v2h-29z"/><path d="m87.547486 126h47v2h-47z"/><path d="m87.547486 131h47v2h-47z"/><path d="m64.547486 144h14v14h-14z"/><path d="m88.547486 146h29v2h-29z"/><path d="m88.547486 150h47v2h-47z"/><path d="m88.547486 155h47v2h-47z"/><path d="m64.547486 169h14v14h-14z"/><path d="m88.547486 171h29v2h-29z"/><path d="m88.547486 175h47v2h-47z"/><path d="m88.547486 180h47v2h-47z"/></g><path d="m41.547486 62h116v29h-116z" fill="url(#c)"/><path d="m42.547486 62h115v27h-115z" fill="#fff"/><path d="m64.547486 69h14v14h-14z" fill="#334750"/><g fill="#334750" opacity=".5"><path d="m87.696187 70.083111h28.423051v2.378444h-28.423051z"/><path d="m87.696187 74.246h46.832712v2.378444h-46.832712z"/><path d="m87.696187 78.408889h46.832712v2.378444h-46.832712z"/></g><path d="m83.6603143 86.8218558c-.7125751-.7123244-1.8967072-.9480005-2.7533691-.4236874-.6654194.4051511-1.032186 1.1598442-1.3675154 1.8721687-.4898954 1.0592185-1.20771 2.0495877-1.42777 3.1935437-.6051648 3.1538231-3.0886986 5.6032658-4.0842079 8.6511672-.3562875 1.088347-.5239522 2.256135-1.0872009 3.249153-.2661862.434786-.5639092.849017-.8907189 1.239285-1.2890071 1.643375-2.4288485 3.400844-3.4056897 5.251076-.5658684.111218-1.0688626.59581-1.5508987.974481-.6176419.485341-1.3330367.827919-2.095809 1.003609-.3070614.03658-.6013626.145414-.8592817.317766-.3615271.304525-.4113026.852671-.7047158 1.220749-.2131461.241233-.4836511.423517-.7859284.529609 0-.092681-.0130988-.185363-.0157186-.280692-.0130988-.489889-.0209581-.982426-.0209581-1.474962 1.745143-2.077103 1.7384798-5.128096-.0157186-7.19739.0206383-.766853.1216266-1.529336.3012726-2.274672.0916916-.362782.0785928-.807654-.2122007-1.04333-.1440868-.113866-.3300899-.156234-.4846558-.264804-.2177986-.186133-.3960341-.414936-.5239523-.672604-.801501-1.1481562-2.3094688-1.5376366-3.5576359-.9188722-.9457338.5031292-1.5194615 1.5093862-2.3577851 2.1925822-.4296409.349542-.9247758.611699-1.3544166.963889-.8598251.758409-1.4710858 1.763241-1.7526204 2.881074-.27548 1.11352-.4352771 2.253051-.4767965 3.400092-.0447503.344016-.0314631.693212.0392964 1.032738.0847441.284223.214823.552556.3851049.794413.7983993 1.31329 1.9204609 2.394544 3.2563633 3.137935.0053351.06786.0053351.13604 0 .2039 0 .105922-.0340569.209195-.0576347.315117l-.1519462-.042368c-.5606289-.127107-1.1657938-.111218-1.6687879-.394559-.8592818-.487241-1.1186381-1.676214-1.9412432-2.221711-.0699153-.045892-.1435285-.085754-.2200599-.119162-.0580857-1.506159-.3425277-2.994619-.8435632-4.414293-.241018-.6779-.537051-1.36904-.5003744-2.091957.0314372-.669955.3484283-1.28695.6313625-1.893353.98765-2.091956 1.679267-4.311019 2.3577852-6.5221376.4348804-1.3893416.8715072-2.7795659 1.3098806-4.1706728.4266429-.3200992.8128788-.6918297 1.1500753-1.1068833.6990921-.8226317 1.1604582-1.8240416 1.3334585-2.8943146.1677973-1.0787609-.0971782-2.1806076-.736153-3.0611414-.2826933-.4215084-.7313894-.6994226-1.2312878-.7626373-.4389968.0096152-.8548099.201097-1.1500752.5296092-.4342927.5007527-.768767 1.0816125-.9850303 1.7106379-.4296408 1.0247939-.8645212 2.0893085-.822605 3.2014879.0340569.9215201.3746259 1.95161-.1571857 2.7010071-1.7421413 2.4547389-3.0572614 5.2775561-4.4378757 7.9626749-.3489576.641287-.6484975 1.308806-.8959583 1.996627-.3337904 1.115563-.4920339 2.277226-.4689373 3.44246-.0130988 2.184638.2829342 4.358684.5763475 6.524786.1336078.977129.3038923 2.015163.7623505 2.85989-.3003445 1.046815-.4581094 2.13013-.4689373 3.220024-.0121608.251656.0270772.503147.1152695.738805.1541841.27416.3494934.522496.5789673.736157.6213282.713434.9078013 1.663211.7859284 2.605677-.0768312.877415.0021303 1.761648.2331587 2.610974.5239523 2.351465 1.0479046 4.700282 1.4670664 7.070283.0995239.440851.1330807.894296.0995509 1.345208-.0812126.640827-.4322606 1.249877-.3562875 1.893353.0750506.297929.1310546.600431.1676647.905632-.0170799.232872-.070117.461607-.1571857.677899-.5973056 1.755655-2.2032192 5.780685-2.1848809 7.639614l.4191618-.100626c-.4217816 2.41237-1.4094316 4.718818-1.9281443 7.123244-.359765 1.751838-.5232201 3.539055-.4872756 5.327869.0345355.803355.0205374 1.608091-.0419162 2.409722-.0812126.712325-.2619762 1.408761-.3615271 2.118437-.1126819.951432-.1547157 1.910057-.1257485 2.867834-.0272734 1.505136.0603116 3.010156.2619761 4.501679.4008235 2.542124-.3012725 5.06836-.4925151 7.634317-.0969004 1.795174-.2980957 3.583039-.6025451 5.35435-.1440869.746749-.3248504 1.488202-.4244014 2.242895-.2934132 2.240247.1336079 4.549343-.3274701 6.760462-.2174402 1.035386-.6051649 2.197878-.0340569 3.082326.1807635.278044.4401199.495184.636602.762637.2189215.257594.2884922.612217.1833833.93476-.1126498.24362-.3746259.402503-.4401199.662012-.1047905.407799.3169911.741453.6942367.916224l.1074102.042368c-.0498348.282258.0248057.572437.2043414.794414.2241731.213683.5025768.360346.8042667.423688l4.9461094 1.514682c1.1029195.33895 2.3027702.672604 3.4056897.397207.0248634.158647.0928928.307177.1964821.428984.2241731.213682.5025768.360345.8042668.423687l4.9094327 1.50409c1.2627249.386615 2.6485787.767934 3.8615281.24362.3475347-.144656.6524502-.37718.8854794-.675251.3899447-.579562.5051151-1.304239.3143713-1.978091-.0614354-.33871-.2285201-.648648-.4767965-.884447-.3359905-.236252-.7330649-.367891-1.142216-.378671-.349108-.010593-.6912849-.101135-1.0007488-.264805-.0933857-.061428-.1714031-.143914-.2279192-.240972.2829342-.282458.5571359-.575508.822605-.879151-.2148204-.074145-.2907935-.386615-.3117516-.614347-.3117516-3.373611.9457339-6.670428 1.4225304-10.022855.2408307-1.68197.283043-3.386911.1257486-5.078952-.0576348-.63818-.1440869-1.273711-.1702845-1.914538-.1231288-3.336538 1.4539675-6.54597 1.3989525-9.885156-.0261976-1.562348.7859284-3.10351 1.1815124-4.615545.3458085-1.339911.3562875-2.743376.3641468-4.130952l.0628743-10.925839c0-1.477609 0-2.989644-.4663175-4.385164-.2353774-.776205-.2997592-1.59509-.1886228-2.39913 1.3334585-.59581 2.5961834-1.47761 4.0213336-1.324023.3798654-1.019498-.0707336-4.416941-.4270211-5.447031-1.4006818-4.052854-1.6725571-8.416847-.7859284-12.615292.3222306-1.506739-.120509-3.108807.2383983-4.610249.0658898-.352426.1984265-.688694.3903444-.990369.1977465-.30567.5373342-.486804.8985781-.479297 0-.918872-.0183383-1.853632-.0785928-2.785744.5786071-.477546 1.0721277-1.051626 1.4592071-1.697398.7859284-1.324023 1.2339075-2.814873 1.7761981-4.25541.9614524-2.542124 2.2739529-4.928014 3.3768724-7.414529 1.1029195-2.486516 1.2103297-5.2060593 2.095809-7.7799602.4876835-1.4176214 1.4960211-2.5913886 2.8162434-3.2782813.5239523-.2648046 1.0819615-.4554639 1.4618269-.8897435.2875026-.3620193.4641453-.8010311.5082337-1.263118.165632-1.0205409-.145899-2.0610618-.8435632-2.8175212zm-30.6512074 109.3987332c.1074102-.119162.2122006-.238324.3117516-.368078-.33009-.052961-.7335332-.296581-.7413925-.635531.0236145-.339781.0959782-.674285.2148204-.993018.1550037-.574864.1800738-1.177612.0733534-1.763598-.0733534-.410448-.2095809-.794414-.2934133-1.212806-.0799413-.453573-.132434-.911653-.1571857-1.371688-.141281-1.650938-.4610525-3.281266-.9535931-4.861812-.4741768-1.533219.175524-3.084974.3431887-4.681746.0812126-.757341.044536-1.538515.3065121-2.250839.1545659-.423688.4086828-.794414.5632487-1.223398.3589073-.982425.1467066-2.076068-.0733533-3.100862 1.5508987-2.841354 2.0643719-6.230853 2.6485787-9.429692.3283434-1.795376.6566868-3.589868.9850302-5.383478.1440869-.794414.3038923-1.631197.7859284-2.272024.5102411 2.376651.7110429 4.810509.5973056 7.239758-.060307.705295-.0515318 1.414887.0261976 2.118437.120509.770582.4375001 1.498794.6208834 2.256136.4086828 1.670917.1702845 3.426571.2619762 5.145153.0340569.693789.1231288 1.387577.1519461 2.081365.1283683 3.069085-.8880991 6.053433-1.8914676 8.953044-.615644 1.776839-.7518715 3.797298-1.0479046 5.658875-.2776947 1.782135-.5527696 3.566918-.6942367 5.364941-.0419162.548146-.0759731 1.11218-.1414671 1.668269-.168506-.037671-.3390973-.065083-.5108535-.082089-.3491081-.010593-.6912849-.101135-1.0007488-.264805-.1851595-.152336-.3195843-.358461-.3851049-.590514z" fill="url(#d)"/><path d="m62.8564609 199.511048c.4043079.012623.7967382.153864 1.1302266.406783.2449991.253329.4103074.586568.4717919.95107.1884405.725264.074393 1.505613-.3110716 2.128447-.2309682.31996-.5327661.568613-.8761849.721897-1.2002177.572933-2.5715247.157556-3.8209954-.257821l-4.8941924-1.629995c-.2983362-.067422-.5738563-.225113-.7958247-.455482-.2758085-.410288-.2841517-.969248-.0207381-1.389364.2632188-.403972.6219466-.72012 1.0369052-.913829 1.5242505-.819295 3.2403286-1.008363 4.9252995-1.042739.622143-.014323 1.2339171-.163286 1.6564559.366678.2229346.286467.1840507.590121.5184526.833618.3030243.174799.6381689.270819.9798754.280737z" fill="#3f3d56"/><path d="m53.8562609 197.508697c.404314.00998.7971665.150479 1.1302024.404203.2435665.254728.4085995.587654.4717817.951739.1888087.725751.0747376 1.506828-.3110649 2.129948-.2308077.321048-.5325792.570848-.876166.725272-1.200192.573337-2.5714696.154801-3.8209134-.260868l-4.8940872-1.631145c-.2987004-.066307-.5744887-.224266-.7958077-.455803-.2758025-.410577-.2841456-.969931-.0207376-1.390343.2626235-.404877.6215176-.721402 1.0368829-.914473 1.5242178-.819872 3.2376668-1.009074 4.9122326-1.043474.6195375 0 1.2338906-.163401 1.6564204.366936.2229298.286669.1840467.593404.5184415.834206.307206.176606.646702.273653.9928153.283802z" fill="#3f3d56"/><path d="m58.7918722 142.945214c-2.9271929-.296798-5.8717917-.380207-8.8108793-.249579-.1940308-.002453-.3870867.028065-.5710755.090273-.6473944.26551-.7473984 1.120451-.8105588 1.821396-.2473783 2.832987-1.4869017 5.474807-2.1053475 8.254692-.3617717 1.745679-.5259871 3.527144-.4894933 5.310191.0343743.796649.0203122 1.594674-.0421069 2.389586-.0815822.711566-.2631685 1.404546-.3631725 2.124077-.1131923.947739-.1554189 1.902739-.1263208 2.856883-.0271353 1.497666.0608511 2.995202.2631684 4.479146.4026477 2.532961-.3026437 5.044682-.4947566 7.604194-.0974951 1.788501-.2996095 3.569631-.6052874 5.334087-.1447427.743426-.3263289 1.481543-.4263329 2.232935-.2947487 2.232935.1342159 4.534903-.3289606 6.735978-.2184298 1.030177-.607919 2.187798-.0342119 3.06929.1815863.278785.442123.493848.6394993.759357.2194837.256392.289425.610218.184218.931939-.1131625.241614-.3763309.400919-.442123.658464-.1052674.406229.3184338.740771.6973963.913353 2.8553776 1.298341 6.537104.382333 8.463497-2.110801-.3315923-.053102-.7368717-.294716-.7447667-.631913.0237074-.338964.0964089-.672609.2157981-.990351.1559118-.572743.1811055-1.173693.0736872-1.757673-.0736872-.40623-.2105348-.796529-.2947487-1.208069-.0803022-.451212-.1330354-.906978-.1579011-1.364719-.141958-1.644906-.4632091-3.269012-.9579331-4.842894-.4763348-1.52668.1763229-3.071946.3447507-4.665003.0815822-.751392.0447386-1.53199.3079071-2.240901.1552693-.42216.4105427-.796528.5658121-1.218689.3605408-.97973.1473743-2.065664-.0736872-3.087876 1.5579572-2.832987 2.0737673-6.207613 2.6606329-9.393728.3298378-1.787764.6596756-3.575529.9895134-5.363293.1447426-.796529.3052753-1.622263.7895053-2.262142.5126526 2.367688.7143909 4.793122.600024 7.213895-.0596831.697459-.0508679 1.399162.0263168 2.094871.1210575.767322.4394913 1.492163.6237092 2.248866.4105428 1.662089.1710595 3.411797.2631685 5.124334.0342119.690325.1236891 1.38065.1526377 2.07363.1289525 3.056015-.892141 6.029722-1.9000761 8.915811-.6184459 1.770949-.7552935 3.783511-1.0526738 5.636768-.2789585 1.776259-.5552854 3.552518-.6973964 5.344707-.1289525 1.646159-.1842179 3.427729-1.200048 4.72076.9263529.608017 1.8869177 1.226654 2.9711716 1.436407 1.2671262.199545 2.5635591-.053034 3.6659363-.714221 1.0940471-.661859 2.0721731-1.501559 2.8948528-2.485169-.2157981-.074343-.2921169-.387644-.3131704-.613327-.3131704-3.358696.9500381-6.637739 1.4290046-9.98316.2419085-1.675759.2843166-3.374692.1263209-5.060612-.0578971-.634568-.1447427-1.266481-.1710595-1.903704-.1236892-3.324179 1.4605848-6.52357 1.4053194-9.847749-.0263168-1.555886.7895053-3.093187 1.1868897-4.598626.3473823-1.327548.3579091-2.732093.3658041-4.112743l.0631604-10.885892c0-1.473578 0-2.979017-.4684398-4.370287-.5789705-1.670055.0815822-3.592344.1815862-5.357983-2.7343646.871382-5.6117279 1.19253-8.4687602.945214z" fill="#3f3d56"/><path d="m67.7293025 111.886564c1.1219496-2.28681 2.4924043-4.443956 4.0867375-6.432676.3322756-.388893.6356061-.801455.9075707-1.234393.5739051-.989642.7447419-2.157527 1.1077702-3.242941 1.0143437-3.0434167 3.5448644-5.4882592 4.1614786-8.6354286.2242234-1.1412812.9556186-2.1282633 1.4547825-3.192395.3416737-.7129682.7153793-1.463181 1.393388-1.8622304.8728695-.5320658 2.0794047-.2846552 2.8054612.4256527.7080787.7518062 1.0247887 1.7891987.8568536 2.8066472-.0435107.4621664-.2237447.9010477-.5178492 1.260996-.3870522.4336337-.9662959.6304981-1.4894837.8912103-1.3436429.68044-2.3716774 1.8517852-2.8695251 3.2695445-.8915547 2.569878-1.0036664 5.2887343-2.1354605 7.7655013-1.131794 2.476766-2.4611182 4.857761-3.4407607 7.393054-.5525504 1.439238-.9983278 2.926362-1.8098028 4.256527-.811475 1.330164-2.0874126 2.444842-3.6196056 2.644367.0021168-.961264-.1492581-1.91674-.4484467-2.83059-.3229884-1.056151-.9289253-2.303845-.443108-3.282846z" fill="#a0616a"/><path d="m51.0331846 113.210844c.0673208-1.8959-.2224685-3.787398-.8537342-5.572446-.2424183-.683818-.5401713-1.378363-.5032815-2.105087.0316197-.673091.3504526-1.295232.6350306-1.903964.9933882-2.105087 1.6890234-4.338892 2.3714837-6.5646525l1.317491-4.1940836c.4283702-.32201.816791-.6956977 1.1567571-1.1128802.7018372-.8266798 1.1659361-1.8344121 1.3412058-2.9122602.1684554-1.0865305-.0982595-2.1964301-.7404299-3.0812033-.2849623-.4248486-.7365342-.7035227-1.2384415-.7642672-.4419739.0078274-.8609124.2020673-1.1567571.5363278-.4366233.503205-.7730993 1.0878928-.9907532 1.7216124-.4321371 1.0297494-.8695441 2.1024051-.8273844 3.2179669.0342548.9278472.3768025 1.9629599-.1580989 2.7165005-1.752263 2.4697897-3.0750239 5.3096455-4.4636594 8.0100564-.3509135.644822-.6522033 1.316348-.9011638 2.008547-.33615 1.124106-.4953404 2.295279-.4716618 3.470042-.0131749 2.198944.2845781 4.38448.5796961 6.564652.1844487 1.362273.432137 2.847901 1.4466051 3.754295 1.0566277-1.364954 2.1158904-2.711137 3.4570963-3.789156z" fill="#a0616a"/><circle cx="58.047486" cy="108.5" fill="#a0616a" r="5.5"/><path d="m55.1338306 114.630973c-.1365547 1.02383-.6855042 1.936019-1.2207983 2.818255-.325.54459-.7346639 1.124578-1.3655463 1.184483 1.6404337.860299 3.3644471 1.551863 5.1453782 2.063997.606451.202633 1.2421271.304737 1.8817227.302292.5412505-.040304 1.0710718-.175821 1.5649159-.400318 2.1892897-.956713 3.8150606-2.864865 4.4079832-5.173607-.7046601.018844-1.4093864-.034994-2.1029411-.160654-.3878152-.070797-.8056723-.185161-1.032353-.503746-.1574459-.277338-.2314045-.594034-.2130252-.912188-.0273109-.942141-.0273109-1.884282 0-2.826424-1.3923175-.089366-2.789124.081482-4.1184874.503746-.5462185.176992-1.092437.392105-1.6523109.530976-.3441177.084411-1.2918067 0-1.5457983.198775-.3850841.302248.3523109 1.680061.2512605 2.374413z" fill="#a0616a"/><path d="m57.6107398 118.01991c-.1246173-1.509209-1.1765882-2.767816-2.6125208-3.125694-.5635882-.126863-1.1719473-.113367-1.6775965-.399484-.8638174-.493957-1.1245428-1.697808-1.9514899-2.251148s-2.0067952-.245629-2.7283987.456168c-.7216036.701796-1.0876725 1.695108-1.3826345 2.666827-.44163 1.317202-.6806331 2.696803-.7084356 4.089315-.0122397.255639.0272117.511112.1158779.750382.1557426.27814.3520125.530274.5820233.747683.6239671.71898.9122949 1.680382.7900769 2.634437-.0771917.889908.0021985 1.786792.2343894 2.647932.5267179 2.378011 1.0534359 4.758721 1.4748102 7.158326.0987314.442254.1324623.897141.1000764 1.349608-.0816413.647813-.4345423 1.265933-.3581682 1.913746.0754427.302775.1317429.610225.1685497.920433-.0172087.23475-.0705395.465232-.1580153.682902-.6004585 1.781484-2.2148488 5.857302-2.1964137 7.738657 2.8047728-.736886 6.9395084-.901539 9.8338233-.912336.797588-.011306 1.5951454.024744 2.3886657.107969 1.9040852.20784 3.8529415.777375 5.6990878.251027 1.7118332-.488558 3.2314143-1.889452 5.0038201-1.711304.3818704-1.0338-.071107-4.475302-.4292751-5.5172-1.4079562-4.102275-1.6813964-8.523752-.7900769-12.775398.3239315-1.527757-.1211451-3.147287.2396567-4.666947.0657945-.357688.1990892-.698771.3924048-1.004109.1994118-.310548.5406814-.494103.9033212-.485859.032823-2.440078-.1878864-4.876805-.6583974-7.268993-.1764505-.850254-.5425194-1.854363-1.3773673-2.000121-.7532066-.129562-1.3879017.520949-1.9909937 1.00141-.6226261.490128-1.3413657.836353-2.1068716 1.014906-.3085049.036275-.6043867.146298-.8638174.321207-.3634353.307711-.4134735.86375-.7084356 1.238941-.5267179.672105-1.7039324.612722-2.0779021 1.387398-.0842034.231081-.1511144.468398-.2001528.709894-.1766129.458993-.477161.856914-.866451 1.147167-.5886828.564066-1.304307.970203-2.0831693 1.182258z" fill="#334750"/><path d="m62.4961713 103.120782c.0933757-.356607.0800363-.78089-.216098-1.020363-.1467333-.111928-.3361526-.153575-.4935573-.260297-.2218349-.1819-.4033817-.40597-.5335754-.658551-.8241641-1.123221-2.3596435-1.5007784-3.6309809-.892818-.9631037.491961-1.5473688 1.475883-2.4010895 2.142242-.4375318.343592-.9417606.598683-1.3792925.939672-.8745681.739936-1.497175 1.722403-1.7848098 2.81641-.2797911 1.088447-.4416408 2.202554-.4828858 3.323989-.0455855.336423-.0320522.677967.0400182 1.009952.0871514.275026.2196097.534376.3921779.767875.8777316 1.301484 2.0409261 2.485834 3.4949191 3.154796 1.4539931.668963 3.2227957.78089 4.6581136.080692.1438966-.05903.2678069-.156468.3574956-.28112.0822624-.18994.1009364-.400378.0533575-.601286-.0758383-.794925.0863438-1.594244.4668785-2.301023.2667877-.520593.6643014-.968304.8803995-1.509721.1960423-.603642.2809472-1.236393.2507804-1.86893.021343-1.632061-.0933757-3.264121.3281489-4.841519z" fill="#2d293d"/><path d="m64.547486 69h14v14h-14z" fill="#334750"/><path d="m74.2752427 81.848807c-.2395131.4464186-.6369691.7949092-1.120028.9820439-.2855346.1008637-.5862571.1558032-.8901958.1626315-.328429.0233018-.6583954-.0160169-.9711226-.1157186-.4164731-.1583099-.7740185-.4340125-1.0261529-.7912647-.2489802-.3572786-.4491756-.7441196-.5956218-1.1509304-.0983469-.2029212-.1396557-.427285-.1197718-.6505259.2557887-.0301497.4886878-.1572845.6474151-.3534107.0941149-.197498.0999683-.4237108.0161853-.6255057-.0194224-.0625506-.0388449-.1219736-.0615044-.1782691-.0485561-.1376113-.216884-.3971961-.1003493-.5129147.1165347-.1157185.388449-.112591.4952725-.1595039.3166342-.1828042.6545651-.3287296 1.0067304-.4347265.3192584-.0410983.6437735-.0209047.9549373.0594231.0425434.0067436.083264.02163.1197718.0437854.0408948.0327861.0712228.0761959.087401.1251011.0906381.2126719.1424313.4472366.213647.6661635.0621426.2296061.184825.4397287.3560783.6098681.1478376.1212401.3151157.2184217.4952725.2877326l.4337681.1907792c.0760986.0292699.1454193.0728566.2039357.1282287.0554778.0755814.0890086.1641305.0971123.2564573.0803441.4994057-.0046241 1.0105702-.2427807 1.4605558z" fill="#a0616a"/><path d="m71.547486 78.5787931c-.4855819.4495748-1.2499453.5511007-1.861438.2472439-.0133118-.039559-.0266237-.0771401-.0421541-.1127432-.0332796-.0870299-.1486488-.2511998-.0687778-.324384s.2662366-.0712062.3394517-.1008755c.217016-.1156113.4486283-.2078993.6899967-.2749352.2188145-.025992.4412319-.0132208.6544985.0375811.0291586.0042649.0570678.0136795.0820896.0276913.0280287.020735.048815.0481887.0599033.079118.0621219.1404345.0976201.282847.1464301.4213036z" fill="#000" opacity=".1"/><circle cx="71.047486" cy="77.5" fill="#a0616a" r="1.5"/><path d="m76.547486 82h-8.2637053c-.2530222-.4760191-.4807422-.9541728-.7362947-1.4301918.0272877-.1132485.0778076-.2216068.1492831-.3201922.0742748-.0977484.2014497-.1577991.3390498-.1600961.0733764 0 .1568738.0234807.2100084-.0213462.0531347-.0448269.0354231-.0811153.0733765-.1109999.0379533-.0298846.1290413-.0298846.1998875-.0256154.1544344.0041745.3009521-.0576301.3896542-.1643653.0271146-.0397694.0602899-.0763695.0986787-.1088654.0665144-.0272517.1387294-.043208.2125386-.0469615.204948-.0384231.3263987-.2134615.4807422-.3223268.0757487-.0721284.1948129-.0997516.3036267-.0704423.0247782.0107827.0463893.0260978.0632555.0448269.0415263.0537833.0699131.1140172.0834974.177173.0916122.3545321.324739.671777.6603879.8986728.3611928.2303763.826526.3105475 1.2658649.2180931.439339-.0924545.8055261-.3476108.9961537-.6941122.122291-.2579891.1924233-.5314559.2074782-.8090189 0-.0149424 0-.0234808 0-.0362885.2084327-.043595.42905-.0068396.6021929.1003269.1679381.1085139.34752.203561.536407.2839037.2251898.0747116.5060445.0747116.660388.2134615.0657858.0555.1113298.1323461.1948271.1665.0518825.017159.1064174.0279422.1619342.0320192.2864002.0652378.5208869.2386294.6350858.4696152.1831627.3425434.3026426.7068596.3542311 1.080115z" fill="#f86d70"/><path d="m69.9606832 73.3842379c-.1276272.1166897-.2358752.2580335-.3197007.4174462-.1573607.2930246-.377164.5369798-.6394013.7096585-.10997.0434228-.2101058.1136701-.2932791.2057413-.0408603.0699529-.067064.1494906-.0766225.2325772-.0536383.2893174-.0810816.5840381-.0819068.8796187-.0097898.1487359.011947.2979644.0634117.4353368.0528431.1252338.153245.2325771.17174.369738.0038491.1085322-.00684.2170984-.0317058.3220299-.0253475.1126529.013543.2312724.0977597.2981759.0478614.0191985.0974995.0322027.1479606.0387628.2642155.0655987.3540487.4174462.393681.7066768.0898333 0 .1294656-.1222521.1506028-.2176684l.2642154-1.3865176c.0317059-.149088.0792647-.3250117.2140145-.3757016.0923088-.0223181.1877596-.0223181.2800684 0 .3646173.0357811.6711072-.2832671 1.027798-.3727198.1149164-.0243521.232083-.0323659.3487644-.0238541.2800683 0 .6076954.1461062.668465.4413003 0 .0477081.0158529.1073433.0554852.1311973.0405505.0133351.0836308.0133351.1241813 0 .1770243-.0208723.2827105.2057414.3355536.3906104l.1849508.6768592c.0290637.1013798.0766224.2236318.1743821.2355589.0925311-.0006254.1704133-.0783275.1823087-.1818873.0039621-.1011101-.0085762-.202181-.0369902-.2981758-.0871911-.4413003.0475588-.8945276.1294656-1.3388096s.0951175-.9541627-.1796665-1.2970649c-.1004019-.1222521-.2325096-.2146866-.324985-.345884s-.1347498-.27134-.2245831-.3935921c-.3588887-.3552914-.8066225-.5761571-1.2814448-.6321328-.5298951-.0528698-1.0615245.0771045-1.524523.3727198z" fill="#3f3d56"/><g fill="#000" opacity=".1" transform="translate(68.547486 75)"><path d="m5.529 2.13272727c-.111 0-.165-.12272727-.198-.21545454l-.21-.61909091c-.06-.16909091-.18-.37636364-.381-.36-.04604251.01219698-.09495749.01219698-.141 0-.045-.02181818-.051-.07363636-.063-.12-.069-.27272727-.441-.39-.759-.40363636-.13261364-.00823277-.26584284.00002524-.396.02454545-.405.07909091-.753.37090909-1.167.33818182-.10511228-.01763714-.21288772-.01763714-.318 0-.153.04909091-.207.20727273-.243.34636363-.105.42272728-.207.84545455-.3 1.26545455-.024.08727273-.069.19363636-.171.19909091-.045-.27272727-.147-.58636364-.447-.64636364-.05753524-.00469191-.11407515-.01662403-.168-.03545454-.03993926-.0195384-.07081803-.05148195-.087-.09 0 .03818181-.018.07909091-.024.11727272-.02878043.10303818.01537728.2115338.111.27272728.05434363.01755992.11070454.02945427.168.03545454.3.06.402.38181818.447.64636364.102 0 .147-.11181818.171-.19909091.105-.42272727.207-.84545455.3-1.26818182.036-.13636364.09-.29727273.243-.34363636.10481082-.02041332.21318918-.02041332.318 0 .414.03272727.762-.25909091 1.167-.34090909.13048037-.02227373.26351569-.0296035.396-.02181818.318 0 .69.13363636.759.40363636 0 .04363636.018.09818182.063.12.04604251.01219698.09495749.01219698.141 0 .201-.01909091.321.18818182.381.35727273l.21.6190909c.033.09272728.087.20454546.198.21545455.1050632-.00057196.19349352-.07164244.207-.16636364.00639537-.07382457-.00381199-.1480599-.03-.21818181-.0350801.0581184-.10428248.09223976-.177.08727272z"/><path d="m.48 1.34727273c-.021-.12545455-.135-.22363637-.195-.33818182-.03940169-.07726663-.06279279-.16047607-.069-.24545455v.13636364c-.01111575.13604158.01356505.27253387.072.39818182.048.09272727.132.17454545.174.27272727.02119534-.07288689.02729906-.14872102.018-.22363636z"/><path d="m5.841.47181818c-.11919166.35331229-.17688836.72139326-.171 1.09090909.0390397-.26838269.09614688-.53433638.171-.79636363.04993225-.20025132.06711701-.40610081.051-.61090909-.00946893.10634492-.02650459.21202066-.051.31636363z"/></g><path d="m68.4523341 82h-1.9048481c.0840407-.556216.2344637-1.0982077.4474804-1.6123237.0167224-.0528791.0443161-.1009407.0806932-.140548.0078241-.009359.0168894-.0174027.0268977-.0238666.0562407-.0477333.1344886-.0662962.1956198-.1113776.0611312-.0450815.0684669-.0928147.1247076-.1113777.2116366-.005397.4223236.0323845.621093.1113777.0562496.0068606.1113704.0220282.1638316.0450814.1239779.0745995.2167746.1980224.2591962.3447402.1613864.4746809.039124.9891394-.0146714 1.4982943z" fill="#f86d70"/></g></svg>