<?xml version="1.0" encoding="UTF-8"?>
<svg width="28px" height="28px" viewBox="0 0 28 28" version="1.1" xmlns="http://www.w3.org/2000/svg" xmlns:xlink="http://www.w3.org/1999/xlink">
    <!-- Generator: sketchtool 64 (101010) - https://sketch.com -->
    <title>E0702775-3835-4507-B890-824AC4A1862E</title>
    <desc>Created with sketchtool.</desc>
    <defs>
        <path d="M26.4760331,1.52396694 L23.6380165,4.36198347 C22.3829138,3.10688078 20.940504,2.14215213 19.3107438,1.4677686 C17.624785,0.755919306 15.8545547,0.4 14,0.4 C11.6209247,0.4 9.39174593,0.980710446 7.31239669,2.14214876 C5.30797896,3.26612132 3.69697579,4.81156041 2.47933884,6.7785124 C1.20550327,8.76419726 0.512397256,10.9465446 0.4,13.3256198 C0.4,13.5129486 0.465564083,13.6721757 0.596694215,13.8033058 C0.727824347,13.9344359 0.887051405,14 1.07438017,14 L2.59173554,14 C2.7790643,14 2.93360821,13.9391191 3.0553719,13.8173554 C3.1771356,13.6955917 3.24738283,13.5504141 3.2661157,13.3818182 C3.35978008,11.5272635 3.91239164,9.81323101 4.92396694,8.23966942 C5.87934362,6.70357359 7.15316008,5.49532121 8.74545455,4.61487603 C10.3752148,3.69696511 12.1267124,3.23801653 14,3.23801653 C15.4611643,3.23801653 16.8567427,3.51900545 18.1867769,4.08099174 C19.4793453,4.62424514 20.6220336,5.39228154 21.614876,6.38512397 L18.6363636,9.36363636 C18.5052335,9.4947665 18.4396694,9.6493104 18.4396694,9.82727273 C18.4396694,10.005235 18.5052335,10.159779 18.6363636,10.2909091 C18.7674938,10.4220392 18.9267208,10.4876033 19.1140496,10.4876033 L26.953719,10.4876033 C27.1410478,10.4876033 27.2955917,10.4220392 27.4173554,10.2909091 C27.5391191,10.159779 27.6,10.0099182 27.6,9.84132231 L27.6,1.97355372 C27.6,1.78622496 27.5344359,1.63168105 27.4033058,1.50991736 C27.2721757,1.38815366 27.1176317,1.32727273 26.9396694,1.32727273 C26.7617071,1.32727273 26.6071632,1.39283681 26.4760331,1.52396694 Z M26.9256198,14 L25.4082645,14 C25.2209357,14 25.0663918,14.0608809 24.9446281,14.1826446 C24.8228644,14.3044083 24.7526172,14.4495859 24.7338843,14.6181818 C24.6402199,16.4727365 24.0876084,18.186769 23.0760331,19.7603306 C22.1206564,21.2964264 20.8468399,22.5046788 19.2545455,23.385124 C17.6247852,24.3030349 15.8732876,24.7619835 14,24.7619835 C12.5388357,24.7619835 11.1432573,24.4809945 9.81322314,23.9190083 C8.53938757,23.3757549 7.39669927,22.6077185 6.38512397,21.614876 L9.36363636,18.6363636 C9.4947665,18.5052335 9.56033058,18.3506896 9.56033058,18.1727273 C9.56033058,17.994765 9.4947665,17.840221 9.36363636,17.7090909 C9.23250623,17.5779608 9.07327917,17.5123967 8.88595041,17.5123967 L1.04628099,17.5123967 C0.858952231,17.5123967 0.704408322,17.5732776 0.582644628,17.6950413 C0.460880934,17.816805 0.4,17.9713489 0.4,18.1586777 L0.4,26.0264463 C0.4,26.213775 0.465564083,26.368319 0.596694215,26.4900826 C0.727824347,26.6118463 0.882368256,26.6727273 1.06033058,26.6727273 C1.2382929,26.6727273 1.39283681,26.6071632 1.52396694,26.4760331 L4.39008264,23.6099174 C5.62645246,24.86502 7.05949598,25.839115 8.6892562,26.5322314 C10.375215,27.2440807 12.1454453,27.6 14,27.6 C16.3790753,27.6 18.6082541,27.0192896 20.6876033,25.8578512 C22.692021,24.7338787 24.3030242,23.1884396 25.5206612,21.2214876 C26.7944967,19.2358027 27.4876027,17.0534554 27.6,14.6743802 C27.6,14.4870514 27.5344359,14.3278243 27.4033058,14.1966942 C27.2721757,14.0655641 27.1129486,14 26.9256198,14 Z" id="path-1"></path>
    </defs>
    <g id="Page-1" stroke="none" stroke-width="1" fill="none" fill-rule="evenodd">
        <g id="Camera-controls" transform="translate(-298.000000, -695.000000)">
            <g id="Icons/Minor/Refresh" transform="translate(298.000000, 695.000000)">
                <mask id="mask-2" fill="white">
                    <use xlink:href="#path-1"></use>
                </mask>
                <use id="Icon-Color" fill="#FFFFFF" xlink:href="#path-1"></use>
            </g>
        </g>
    </g>
</svg>