<?xml version="1.0" encoding="UTF-8"?>
<svg width="20px" height="20px" viewBox="0 0 20 20" version="1.1" xmlns="http://www.w3.org/2000/svg" xmlns:xlink="http://www.w3.org/1999/xlink">
    <!-- Generator: sketchtool 64 (101010) - https://sketch.com -->
    <title>F564FBD0-3E60-48FA-A70D-AAC25E81BD82</title>
    <desc>Created with sketchtool.</desc>
    <g id="Page-1" stroke="none" stroke-width="1" fill="none" fill-rule="evenodd">
        <g id="Exportable-assets" transform="translate(-38.000000, -123.000000)">
            <g id="timer-off" transform="translate(30.000000, 115.000000)">
                <path d="M18,8 C12.4758065,8 8,12.4758065 8,18 C8,23.5241935 12.4758065,28 18,28 C23.5241935,28 28,23.5241935 28,18 C28,12.4758065 23.5241935,8 18,8 Z M22.2918921,19.9876124 L22.2918921,19.9876124 L21.4238701,21.0726558 C21.3088261,21.2164917 21.1413532,21.3087311 20.9582979,21.3290799 C20.7752426,21.3494287 20.5916019,21.2962199 20.4477793,21.1811601 L20.4477793,21.1811601 L17.5399054,19.0232259 C17.1283441,18.6937083 16.8888229,18.1950178 16.8888889,17.6677897 L16.8888889,10.91665 C16.8888889,10.5331281 17.1997903,10.2222222 17.5833065,10.2222222 L18.9721418,10.2222222 C19.3556581,10.2222222 19.6665595,10.5331281 19.6665595,10.91665 L19.6665595,17.1664997 L22.1838234,19.0110734 C22.3277195,19.1261918 22.4199589,19.2937856 22.4402284,19.4769469 C22.460498,19.6601082 22.4071353,19.8438155 22.2918921,19.9876124 Z" id="timer" fill="#FFFFFF" fill-rule="nonzero"></path>
                <rect id="Rectangle-Copy-4" fill-opacity="0" fill="#D8D8D8" x="0" y="0" width="36" height="36"></rect>
            </g>
        </g>
    </g>
</svg>