<?xml version="1.0" encoding="UTF-8"?>
<svg width="31px" height="20px" viewBox="0 0 31 20" version="1.1" xmlns="http://www.w3.org/2000/svg" xmlns:xlink="http://www.w3.org/1999/xlink">
    <!-- Generator: sketchtool 64 (101010) - https://sketch.com -->
    <title>EEBF5431-CB12-48D6-85C1-9284F6FC525B</title>
    <desc>Created with sketchtool.</desc>
    <g id="Page-1" stroke="none" stroke-width="1" fill="none" fill-rule="evenodd">
        <g id="Exportable-assets" transform="translate(-33.000000, -241.000000)">
            <g id="timer-on" transform="translate(30.000000, 233.000000)">
                <rect id="Rectangle" fill-opacity="0" fill="#D8D8D8" x="0" y="0" width="36" height="36"></rect>
                <path d="M13,8 C18.5241935,8 23,12.4758065 23,18 C23,23.5241935 18.5241935,28 13,28 C7.47580645,28 3,23.5241935 3,18 C3,12.4758065 7.47580645,8 13,8 Z M33.2734375,12 L33.2734375,13.6328125 L28.7421875,13.6328125 L28.7421875,16.2109375 L28.9220679,16.0797647 C29.4092078,15.7505466 29.9560185,15.5859375 30.5625,15.5859375 C31,15.5963542 31.4010417,15.6744792 31.765625,15.8203125 C32.109375,15.9817708 32.3880208,16.1796875 32.6015625,16.4140625 C32.9192708,16.7265625 33.1484375,17.0885417 33.2890625,17.5 C33.3619792,17.7239583 33.4140625,17.9973958 33.4453125,18.3203125 C33.4765625,18.6484375 33.4921875,19.0520833 33.4921875,19.53125 C33.4921875,20.2708333 33.4401042,20.8385417 33.3359375,21.234375 C33.2265625,21.625 33.0442708,21.9713542 32.7890625,22.2734375 C32.5651042,22.5703125 32.2395833,22.8411458 31.8125,23.0859375 C31.3958333,23.3411458 30.9010417,23.4739583 30.328125,23.484375 C29.5572917,23.484375 28.8515625,23.2552083 28.2109375,22.796875 C27.5598958,22.328125 27.15625,21.5703125 27,20.5234375 L27,20.5234375 L28.6328125,20.5234375 L28.6703186,20.6824341 C28.879364,21.4520874 29.4111328,21.8417969 30.265625,21.8515625 C30.65625,21.8515625 30.96875,21.7734375 31.203125,21.6171875 C31.4270833,21.4661458 31.5833333,21.2682292 31.671875,21.0234375 C31.765625,20.7786458 31.8229167,20.5130208 31.84375,20.2265625 C31.8541667,19.9453125 31.859375,19.671875 31.859375,19.40625 C31.8697917,18.7552083 31.7682292,18.2265625 31.5546875,17.8203125 C31.4401042,17.6276042 31.2708333,17.4739583 31.046875,17.359375 C30.8229167,17.265625 30.5442708,17.21875 30.2109375,17.21875 C29.9140625,17.21875 29.6432292,17.2864583 29.3984375,17.421875 C29.1536458,17.5625 28.9348958,17.8072917 28.7421875,18.15625 L28.7421875,18.15625 L27.203125,18.15625 L27.203125,12 L33.2734375,12 Z M13.9721418,10.2222222 L12.5833065,10.2222222 C12.1997903,10.2222222 11.8888889,10.5331281 11.8888889,10.91665 L11.8888889,10.91665 L11.8888889,17.6677897 C11.8888229,18.1950178 12.1283441,18.6937083 12.5399054,19.0232259 L12.5399054,19.0232259 L15.4477793,21.1811601 L15.5385278,21.2426802 C15.6650348,21.3145611 15.8118537,21.3453589 15.9582979,21.3290799 C16.1413532,21.3087311 16.3088261,21.2164917 16.4238701,21.0726558 L16.4238701,21.0726558 L17.2918921,19.9876124 L17.3535184,19.8968687 C17.4255351,19.7703544 17.4564441,19.6234759 17.4402284,19.4769469 C17.4199589,19.2937856 17.3277195,19.1261918 17.1838234,19.0110734 L17.1838234,19.0110734 L14.6665595,17.1664997 L14.6665595,10.91665 C14.6665595,10.5331281 14.3556581,10.2222222 13.9721418,10.2222222 L13.9721418,10.2222222 Z" id="timer-5sec" fill="#FFFFFF" fill-rule="nonzero"></path>
            </g>
        </g>
    </g>
</svg>