<?xml version="1.0" encoding="UTF-8"?>
<svg width="20px" height="16px" viewBox="0 0 20 16" version="1.1" xmlns="http://www.w3.org/2000/svg" xmlns:xlink="http://www.w3.org/1999/xlink">
    <!-- Generator: sketchtool 64 (101010) - https://sketch.com -->
    <title>4C5BB73D-B2A1-4FD1-962A-55C76759AC35</title>
    <desc>Created with sketchtool.</desc>
    <g id="Page-1" stroke="none" stroke-width="1" fill="none" fill-rule="evenodd">
        <g id="Exportable-assets" transform="translate(-207.000000, -243.000000)">
            <g id="toggle-on" transform="translate(199.000000, 233.000000)">
                <rect id="Rectangle-Copy-7" fill-opacity="0" fill="#D8D8D8" x="0" y="0" width="36" height="36"></rect>
                <path d="M9.42083181,10.1054169 L10.8445152,11.2050376 C11.0678597,11.0741765 11.3229147,11 11.59375,11 L25.40625,11 C26.2864648,11 27,11.7834896 27,12.75 L27,23.25 C27,23.3905122 26.984919,23.5271561 26.9564373,23.6580867 L27.8069958,24.3156608 C28.024811,24.485035 28.0641865,24.799096 27.8948094,25.01722 L27.2810518,25.8069036 C27.1116748,26.0250276 26.7972959,26.0640899 26.5791682,25.8947157 L25.4214502,24.9999221 C25.4163891,24.999974 25.4113223,25 25.40625,25 L11.59375,25 C10.7135352,25 10,24.2165104 10,23.25 L10,13.081 L8.19300418,11.6844718 C7.975189,11.5150976 7.93581351,11.2010366 8.1051906,10.9829127 L8.71894816,10.193229 C8.88832524,9.97510506 9.20270412,9.93573025 9.42083181,10.1054169 Z M14.4210469,17.8793919 L12,20.3450681 L12,22 L21.541,22 L17.656,18.998 L16.875,19.7934241 L14.9955859,17.8793919 C14.8369453,17.7178292 14.5797214,17.7178292 14.4210469,17.8793919 Z M21.4627135,15.121172 L19.067,17.561 L24.811,22 L25,22 L25,18.1384922 L22.0372526,15.121172 C21.878612,14.9596093 21.621388,14.9596093 21.4627135,15.121172 Z M12,15 C12,16.1045714 12.8954286,17 14,17 C14.2981806,17 14.5811202,16.9347467 14.8353179,16.8177411 L12.0305093,14.6500691 C12.0104585,14.7636924 12,14.8806248 12,15 Z M14,13 C13.7612341,13 13.5322405,13.0418397 13.319951,13.1185873 L15.9916846,15.1836089 C15.9971879,15.1231432 16,15.0619 16,15 C16,13.8954286 15.1045714,13 14,13 Z" id="Combined-Shape" fill="#FFFFFF" fill-rule="nonzero"></path>
            </g>
        </g>
    </g>
</svg>