<?xml version="1.0" encoding="UTF-8"?>
<svg width="17px" height="14px" viewBox="0 0 17 14" version="1.1" xmlns="http://www.w3.org/2000/svg" xmlns:xlink="http://www.w3.org/1999/xlink">
    <!-- Generator: sketchtool 64 (101010) - https://sketch.com -->
    <title>352FF830-56BC-49E3-A61F-B52FAAE9A191</title>
    <desc>Created with sketchtool.</desc>
    <g id="Page-1" stroke="none" stroke-width="1" fill="none" fill-rule="evenodd">
        <g id="Exportable-assets" transform="translate(-209.000000, -126.000000)">
            <g id="toggle-off" transform="translate(199.000000, 115.000000)">
                <rect id="Rectangle-Copy-2" fill-opacity="0" fill="#D8D8D8" x="0" y="0" width="36" height="36"></rect>
                <path d="M25.40625,25 L11.59375,25 C10.7135352,25 10,24.2165104 10,23.25 L10,12.75 C10,11.7834896 10.7135352,11 11.59375,11 L25.40625,11 C26.2864648,11 27,11.7834896 27,12.75 L27,23.25 C27,24.2165104 26.2864648,25 25.40625,25 Z M14,13 C12.8954286,13 12,13.8954286 12,15 C12,16.1045714 12.8954286,17 14,17 C15.1045714,17 16,16.1045714 16,15 C16,13.8954286 15.1045714,13 14,13 Z M12,22 L25,22 L25,18.1384922 L22.0372526,15.121172 C21.878612,14.9596093 21.621388,14.9596093 21.4627135,15.121172 L16.875,19.7934241 L14.9955859,17.8793919 C14.8369453,17.7178292 14.5797214,17.7178292 14.4210469,17.8793919 L12,20.3450681 L12,22 Z" id="Shape-Copy-2" fill="#FFFFFF" fill-rule="nonzero"></path>
            </g>
        </g>
    </g>
</svg>