<svg height="135" viewBox="0 0 180 135" width="180" xmlns="http://www.w3.org/2000/svg"><g fill="none"><path d="m70.6360439 125.385844-2.1328235-.544787c-.3784567-.868484-.7013377-1.755194-.9671047-2.655906l1.0016265-.032375-1.0920113-.27893c-.3161511-1.116642-.4457309-1.873846-.4457309-1.873846s4.3256703 1.141719 7.5832602 3.369793l.4018879 2.498955.384488-1.921415c.354494.2788.6888502.577084 1.0010884.893084 3.1360889 3.195309 4.5008187 6.693288 3.0482093 7.81298-1.4526094 1.119691-5.1724844-.562926-8.308571-3.758227-.9705197-1.0376-1.7558324-2.20091-2.3285792-3.4494z" fill="#e6e6e6"/><path d="m146.08692 113.000493 1.182553-4.493822c2.096833-.856179 4.242119-1.597728 6.425638-2.221114l.149314 2.088461.605457-2.300845c2.707919-.745011 4.550118-1.073173 4.550118-1.073173s-2.488394 9.116918-7.707591 16.086917l-6.08152 1.029237 4.724565.656311c-.656803.76125-1.362652 1.481945-2.113366 2.157816-7.592462 6.790012-16.049054 9.905306-18.888309 6.958198s1.013986-10.8406 8.606457-17.630613c2.353741-2.104969 5.310537-3.794191 8.270276-5.123641z" fill="#e6e6e6"/><path d="m136.19336 107.590376-1.381324-4.539605c1.319134-1.818759 2.739968-3.5617927 4.255735-5.220795l1.232844 1.7535322-.707248-2.324281c1.894686-2.0328229 3.278312-3.2592272 3.278312-3.2592272s2.726905 9.255296 2.007428 18.021562l-4.59633 4.001243 4.342193-1.83299c-.151944 1.00166-.366843 1.992788-.643425 2.967513-2.821347 9.818163-8.32037 16.857433-12.282423 15.722648-3.962053-1.134786-4.886769-10.013905-2.065422-19.832068.874646-3.043726 2.479443-6.030589 4.277355-8.703765z" fill="#e6e6e6"/><g fill="#2f2e41"><path d="m117 50.7083776 12.338915.2916224 1.661085-14h-14z"/><path d="m129.21949 70.2916559 4.445686 30.3333511s3.852929 10.791669 4.149308 16.041668l1.185516 7.583335-5.334824 1.166667-5.631194-21.291669-7.705856-19.2500045.889122 22.1666605 1.778283 18.083336-5.334824.875-3.260172-23.04167-3.556549-16.9166596s-2.667412-14.5833367 1.481895-16.0416704z"/><path d="m133.187798 122 .602735 7.297116s-6.450922 3.712735-4.381078 4.432405c2.069843.71967 4.90288-.206204 5.482351-.369768.61195-.172733 1.754408-.448205 2.618888-.652055.821344-.187225 1.424203-.885516 1.486684-1.722025l.001637-.026846c.052126-.897917-1.98286-8.700952-1.98286-8.700952z"/><path d="m118.023331 123-.487744 6.631159s-7.054464 2.582103-5.236018 3.627655c1.818447 1.045553 4.659638.694023 5.236018.646201 1.062693-.088168 3.707405-.176126 3.707405-.176126s.488893.417044.703541-.411156-.286308-8.226629-.286308-8.226629z"/></g><circle cx="123.5" cy="39.5" fill="#ffb8b8" r="5.5"/><path d="m125.857052 43 1.142948 6.6000743-4.857264 2.3999257-1.142736-8.4000743z" fill="#ffb8b8"/><path d="m127 73.0257057-6.484615 4.3407795s-2.779121 6.6558619-4.940659 5.4983121 2.47033-6.9452472 2.47033-6.9452472l5.24945-4.9195501z" fill="#ffb8b8"/><path d="m108.604622 71-.604622 3.6740848s1.511555 7.6543574 3.325422 6.1234859c1.813866-1.5308715-.604622-6.4296602-.604622-6.4296602l.302311-3.061743z" fill="#ffb8b8"/><path d="m122.755137 50.0647306.596443-2.3226983 3.578656-1.7420323 1.192886 1.4516864 3.876878 1.1613492-4.473321 23.2269826s-15.20929.8710119-15.507512-1.4516864c-.298221-2.3226983 2.982214-8.7101185 2.982214-8.7101185s-.894664-3.1937101-.596443-4.9357338l1.192886-6.9680948 4.771542-1.4516864 1.089752-1.28352.997793 1.5738573z" fill="#d0cde1"/><path d="m131.505005 49.5681818.891096-.5681818s1.7822.2840909 2.376255 2.5568182c.594056 2.2727273 0 12.4999915-1.485159 14.4886363-1.48516 1.9886449-5.643599 7.9545455-5.643599 7.9545455l-5.643598-2.5568182 5.940639-6.5340909 1.48516-8.2386364z" fill="#d0cde1"/><path d="m119 50.5897436-2.444444-.5897436s-1.527778.5897436-2.138889 2.6538462c-.611111 2.0641025-3.972223 12.3846153-3.666667 13.2692307s-2.75 6.7820513-2.75 6.7820513l4.277778.2948718 2.444444-6.1923077 2.444445-6.1923143z" fill="#d0cde1"/><path d="m132.994036 44.9843481c-1.200168-.6346257-1.758695-2.0590861-1.798494-3.3770057-.039852-1.3179217.292095-2.622236.318176-3.9404813.013427-.2696944-.010447-.5399107-.070993-.8035449-.099539-.3272435-.254627-.6363702-.458981-.914853-1.560711-2.3028214-4.273679-3.9227131-7.13129-3.9482009-.412843-.0052137-.822762.0673519-1.206687.213613-.295445.1139391-.392046.0999932-.448666.4493073-.676928-.2150501-1.411036-.1925728-2.072409.063454-.655076.2564569-1.266094.6068651-1.812315 1.0393313-.324644.2324608-.630918.4878092-.916297.7639398-1.510164 1.5065011-1.857923 3.8283226-1.420427 5.8793741.142229.6668198-.540231 1.3105663-1.104886 1.7201334s-1.216726.7856653-1.494028 1.4118558c-.266709.6023544-.120233 1.291249-.173936 1.9440328-.122965 1.2587625-.976674 2.3414467-2.202803 2.7936214.249805.2879947.643261.4212388 1.025282.3472123.391411-.0794153.757609-.2472933 1.068394-.4897888 1.168782-.8339776 2.005062-2.0288315 2.369185-3.3850274.165867.7264043.101542 1.4756354.095437 2.2193623.014512.8299838-.144228 1.6543212-.466806 2.4241137-.32814.7734758-.929117 1.410692-1.69714 1.7994766.740722.3492691 1.557036.0961216 2.184732-.4190972s.998315-1.2630893 1.257225-2.0171476c.421139-1.2288426.591955-2.5244196.503074-3.8156152.689003 1.116993.940805 2.4343125.709985 3.7143386-.241086 1.305059-.948691 2.4877867-2.000205 3.3432475 1.833401-.0149577 3.636461-.4522198 5.258524-1.2752505.418863-.1828005.788038-.4565799 1.078558-.7998555.521961-.6972591.398476-1.6482377.252079-2.4961401-.115793-.6704321.754248-1.6396653.256005-2.1210638-.148017-.1408484-.345792-.2227037-.553777-.229198-1.518529-.1094014-2.897984-.8922673-3.732959-2.1185228-.574565-.8318956-.900916-1.799726-.943471-2.7979665.001072-2.0022888 1.220795-3.8180708 3.116859-4.640016s4.116389-.497427 5.673778.8292677c1.557389 1.3266948 2.162651 3.409213 1.546676 5.3216287-.179734.563374-.308507 1.1406676-.384877 1.7254213-.090248.6785328-.233702 1.3495145-.429132 2.0071955-.376962 1.2639571-1.015579 2.5536527-2.197239 3.2129243.397079.2092572.856652.2186823 1.306545.2664206 1.482743.1573238 3.042164.1225865 4.384205-.5044974 1.342107-.6270946 2.408725-1.962521 2.313099-3.3959994z" fill="#2f2e41"/><path d="m130 39c-4.412757-1.5022028-8.763057-1.8226547-13 0v-3.0279001c0-1.0891607 1.039536-1.9720999 2.321869-1.9720999h8.843831c.486487 0 .953049.164144 1.297047.4563222s.537253.6884568.537253 1.1016589z" fill="#2f2e41"/><ellipse cx="128.5" cy="41" fill="#ffb8b8" rx="1" ry="1"/><path d="m67 133.78371h113v1h-113z" fill="#3f3d56"/><path d="m30 0h-20l-10 16.9998922 10 17.0001078h20l10-17.0001078z" fill="#e6e6e6"/><path d="m11.7500005 32h17.499999l8.7500005-15.5000022-8.7500005-15.4999978h-17.499999l-8.7500005 15.4999978z" fill="#fff"/><path d="m30 46h-20l-10 16.9998922 10 17.0001078h20l10-17.0001078z" fill="#e6e6e6"/><path d="m11.7500005 79h17.499999l8.7500005-15.4999956-8.7500005-15.5000044h-17.499999l-8.7500005 15.5000044z" fill="#fff"/><path d="m30 93h-20l-10 16.999892 10 17.000108h20l10-17.000108z" fill="#e6e6e6"/><path d="m11.7500005 126h17.499999l8.7500005-15.5-8.7500005-15.5h-17.499999l-8.7500005 15.5z" fill="#fff"/><path d="m20 55c-4.4182751 0-8 3.5817187-8 8 0 4.418273 3.5817166 8 8 8 4.4182709 0 8-3.5817145 8-8-.0129118-4.4129109-3.5870787-7.9870824-8-8zm.0000021 2.399999c1.325484 0 2.400001 1.074517 2.400001 2.400001s-1.074517 2.400001-2.400001 2.400001-2.4000011-1.074517-2.4000011-2.400001c.0044174-1.3236499 1.0763511-2.3955837 2.4000011-2.400001zm0 11.5538457c-1.9248371-.0087793-3.7211913-.9674112-4.8-2.56154.0384701-1.6 3.2-2.4807674 4.8-2.4807674s4.7615361.8807674 4.7999979 2.4807674c-1.079973 1.5928351-2.8755894 2.5510733-4.8 2.56154z" fill="#5e8c9c"/><path d="m20.4847583 11.3680587c-1.0875468-1.1594284-2.7076541-1.62882508-4.2330513-1.2264499-1.5253973.4023751-2.7166037 1.613351-3.11241 3.1640639s.0659274 3.1977077 1.2064279 4.3033036l6.286689 6.3910237 6.1390335-6.2409176c1.6663422-1.7764947 1.6335669-4.5802293-.073833-6.3159654s-4.465363-1.7690554-6.2128561-.0750583z" fill="#5e8c9c"/><path d="m26 105.065926c0 2.79602-5 8.934074-5 8.934074s-5-6.138054-5-8.934074c-.0011581-1.80949.9515827-3.482029 2.4990639-4.387113 1.5474811-.9050839 3.4543911-.9050839 5.0018722 0 1.5474812.905084 2.500222 2.577623 2.4990639 4.387113z" fill="#5e8c9c"/><circle cx="20" cy="105" fill="#fff" r="2"/><circle cx="20" cy="118" fill="#5e8c9c" r="2"/></g></svg>