<svg height="15" viewBox="0 0 23 15" width="23" xmlns="http://www.w3.org/2000/svg"><path d="m22.24 6.22c.1733342.2933348.26.6133316.26.96s-.0866658.6666652-.26.96c-.733337 1.2400062-1.6633277 2.3299953-2.79 3.27s-2.3766598 1.6633308-3.75 2.17c-1.4266738.5200026-2.906659.78-4.44.78s-3.0133262-.2599974-4.44-.78c-1.3866736-.5066692-2.6433277-1.2299953-3.77-2.17s-2.056663-2.0299938-2.79-3.27c-.1733342-.2933348-.26-.6133316-.26-.96s.0866658-.6666652.26-.96c.733337-1.2400062 1.6633277-2.3299953 2.79-3.27s2.3766598-1.6633308 3.75-2.17c1.4400072-.5200026 2.926659-.78 4.46-.78s3.0133262.2599974 4.44.78c1.3733402.5066692 2.6233277 1.226662 3.75 2.16s2.056663 2.0266604 2.79 3.28zm-10.98 6.28c1.3066732 0 2.5733272-.2266644 3.8-.68 1.1733392-.4266688 2.2366619-1.039996 3.19-1.84s1.7433302-1.733328 2.37-2.8c-.5733362-.9866716-1.3033289-1.8633295-2.19-2.63s-1.8699946-1.383331-2.95-1.85c.3466684.4533356.6133324.9566639.8 1.51s.28 1.1233304.28 1.71c0 .9600048-.2366643 1.8466626-.71 2.66s-1.1166626 1.4599976-1.93 1.94-1.6999952.72-2.66.72-1.8466626-.2399976-2.66-.72-1.4599976-1.1266626-1.94-1.94-.72-1.6999952-.72-2.66c0-.8800044.2066646-1.7133294.62-2.5 0 .400002.099999.766665.3 1.1s.466665.599999.8.8.699998.3 1.1.3.766665-.099999 1.1-.3.5966657-.466665.79-.8.29-.699998.29-1.1c0-.2800014-.0533328-.553332-.16-.82s-.259999-.499999-.46-.7c-1.7866756.1466674-3.4333258.6999952-4.94 1.66-1.4533406.933338-2.6199956 2.1399926-3.5 3.62.6266698 1.066672 1.4166619 1.999996 2.37 2.8s2.0233274 1.4133312 3.21 1.84c1.2133394.4533356 2.4799934.68 3.8.68z" fill="#387cb8" fill-rule="evenodd"/></svg>